<svg width="1049.58" height="678.59" xmlns="http://www.w3.org/2000/svg" data-name="Layer 1">
 <defs>
  <linearGradient y2="-0.00007" x2="0.49988" y1="0.99994" x1="0.49988" id="b6a338e9-6675-4055-aeec-b883651a73ae">
   <stop stop-opacity="0.25" stop-color="gray" offset="0"/>
   <stop stop-opacity="0.12" stop-color="gray" offset="0.54"/>
   <stop stop-opacity="0.1" stop-color="gray" offset="1"/>
  </linearGradient>
 </defs>
 <title>wallet</title>
 <g>
  <title>Layer 1</title>
  <rect id="svg_1" fill="#85848b" height="7.67" width="1049.58" y="670.92"/>
  <path id="svg_2" fill="#504f60" d="m831.54,535.49c0,5.9 -34.39,23.1 -75.24,23.1s-72.68,-17.2 -72.68,-23.1s33.11,-4 74,-4s73.92,-1.91 73.92,4z"/>
  <path id="svg_3" opacity="0.2" d="m831.54,535.49c0,5.9 -34.39,23.1 -75.24,23.1s-72.68,-17.2 -72.68,-23.1"/>
  <path id="svg_4" fill="#6c63ff" d="m420.15,427.23c6.63,0.85 13.51,1.39 19.86,-0.67c1,-0.31 2.1,-1 2,-2a2.42,2.42 0 0 0 -0.45,-1a61.78,61.78 0 0 1 -6,-11.43a1,1 0 0 0 -0.37,-0.52a0.94,0.94 0 0 0 -0.64,0c-2.93,0.77 -5.46,2.66 -8.37,3.47a11.9,11.9 0 0 1 -4.56,0.34c-1.32,-0.15 -3.12,-1.24 -4.32,-1.1c0.68,4.37 2.34,8.45 2.85,12.91z"/>
  <path id="svg_5" fill="#6c63ff" d="m545.54,416.16c4.37,-3 8.9,-6.15 11.48,-10.78a1.87,1.87 0 0 0 0.31,-0.93a1.92,1.92 0 0 0 -0.37,-0.9a37.16,37.16 0 0 0 -9.33,-10.07a27.21,27.21 0 0 0 -5.2,4.8c-1.1,1.16 -4.14,3 -4.17,4.77c0,1 1.16,2.16 1.7,3c0.73,1.08 1.42,2.18 2.08,3.3c0.38,0.55 3.85,6.59 3.5,6.81z"/>
  <path id="svg_6" fill="#514e7f" d="m446.14,440.62a4.45,4.45 0 0 1 -0.8,2.9a3.93,3.93 0 0 1 -1.68,1c-9.27,3.32 -20,-0.82 -29.25,2.45c-1.9,0.67 -3.7,1.64 -5.61,2.28a30.52,30.52 0 0 1 -7,1.24c-3.27,0.31 -6.56,0.51 -9.84,0.6a23.66,23.66 0 0 1 -7.42,-0.65a8.91,8.91 0 0 1 -5.69,-4.51a4.33,4.33 0 0 1 -0.28,-3.21a3.46,3.46 0 0 1 0.61,-1a8.77,8.77 0 0 1 2.18,-1.77l3.41,-2.2a22.89,22.89 0 0 1 5.17,-2.74c1.35,-0.44 2.78,-0.63 4.15,-1c4.79,-1.4 8.45,-5.2 11.85,-8.85l4.64,-4.95a4.67,4.67 0 0 1 1.61,-1.29a4.46,4.46 0 0 1 2,-0.19a26.74,26.74 0 0 1 12.65,4.24a16.39,16.39 0 0 0 3.12,1.84c2.72,1.06 6.21,0.26 8.72,-1.08c1.19,-0.64 0.93,-1 1.43,-2.14s1.72,-1.87 2.78,-0.83a2.94,2.94 0 0 1 0.66,1.26c1,3.3 0.62,6.85 0.62,10.31a4.54,4.54 0 0 0 0.2,1.6a9.05,9.05 0 0 0 0.91,1.48a3.37,3.37 0 0 1 0.19,0.38a10.17,10.17 0 0 1 0.67,4.83z"/>
  <path id="svg_7" fill="#464353" d="m446.14,440.62a4.45,4.45 0 0 1 -0.8,2.9a3.93,3.93 0 0 1 -1.68,1c-9.27,3.32 -20,-0.82 -29.25,2.45c-1.9,0.67 -3.7,1.64 -5.61,2.28a30.52,30.52 0 0 1 -7,1.24c-3.27,0.31 -6.56,0.51 -9.84,0.6a23.66,23.66 0 0 1 -7.42,-0.65a8.91,8.91 0 0 1 -5.69,-4.51a4.33,4.33 0 0 1 -0.28,-3.21a3.46,3.46 0 0 1 0.61,-1c0.54,1.13 0.93,2.63 1.27,3.17a6.49,6.49 0 0 0 4.34,3.13a10.78,10.78 0 0 0 4,-0.51c8.4,-2.08 17.33,-2.11 25.4,-5.26c2.77,-1.09 5.41,-2.54 8.32,-3.2s6,-0.48 9,-0.73c4.74,-0.38 9.33,-1.81 14,-2.56a10.17,10.17 0 0 1 0.63,4.86z"/>
  <path id="svg_8" fill="#514e7f" d="m566.77,415.55c-0.44,3.52 -2.67,6.55 -5.12,9.12s-5.22,4.88 -7.17,7.84c-2.4,3.67 -3.48,8.22 -6.6,11.32a18.1,18.1 0 0 1 -4,2.85a27.91,27.91 0 0 1 -5.15,2.37c-4.66,1.49 -9.68,1.15 -14.55,0.79a13.09,13.09 0 0 1 -4.62,-0.89a13.92,13.92 0 0 1 -1.92,-1.18a9.17,9.17 0 0 1 -3,-3a3,3 0 0 1 -0.29,-2.18a5.12,5.12 0 0 1 1.39,-2.12a33,33 0 0 1 3.52,-3.17a21.07,21.07 0 0 0 4.58,-4a12.92,12.92 0 0 0 1.77,-4a35.48,35.48 0 0 0 1.29,-7.65a24.25,24.25 0 0 1 0.53,-5.12c0.74,-2.64 2.7,-5 2.48,-7.73a1.93,1.93 0 0 1 0.1,-1.17a1.63,1.63 0 0 1 0.92,-0.57a16.3,16.3 0 0 1 4.78,-1.11a5.57,5.57 0 0 1 4.44,1.74c0.68,0.82 1.13,2 2.13,2.32a3.38,3.38 0 0 0 1.52,0.06c2.46,-0.25 5.06,-0.56 7,-2.15a8.73,8.73 0 0 0 2.9,-6.37c0,-0.91 -0.41,-1.86 1,-2c1.06,-0.14 1.9,1 2.44,1.7c1.95,2.61 3.95,5.34 4.68,8.52a2.51,2.51 0 0 1 0.89,-0.17a3.87,3.87 0 0 1 3.19,1.63a6.35,6.35 0 0 1 0.87,4.32z"/>
  <path id="svg_9" fill="#464353" d="m566.77,415.55c-0.44,3.52 -2.67,6.55 -5.12,9.12s-5.22,4.88 -7.17,7.84c-2.4,3.67 -3.48,8.22 -6.6,11.32a18.1,18.1 0 0 1 -4,2.85a27.91,27.91 0 0 1 -5.15,2.37c-4.66,1.49 -9.68,1.15 -14.55,0.79a13.09,13.09 0 0 1 -4.62,-0.89a13.92,13.92 0 0 1 -1.92,-1.18a9.17,9.17 0 0 1 -3,-3a7.31,7.31 0 0 1 3,-0.72c2.16,0.12 3.74,2.16 5.81,2.79c2.95,0.89 5.89,-1.19 8.88,-1.9c1.95,-0.46 4,-0.34 5.93,-1a14.66,14.66 0 0 0 4.39,-2.66a22.35,22.35 0 0 0 4.69,-4.52a29.05,29.05 0 0 0 2.75,-5.49a78.5,78.5 0 0 1 5.56,-10.64a7.52,7.52 0 0 1 1.13,-1.48c0.47,-0.43 1,-0.73 1.53,-1.11c2,-1.51 2.83,-4 3.53,-6.44a11.27,11.27 0 0 1 0.79,-2.15a3.87,3.87 0 0 1 3.19,1.63a6.35,6.35 0 0 1 0.95,4.47z"/>
  <path id="svg_10" fill="#a1616a" d="m357.08,103.77a21.21,21.21 0 0 1 6,7c1.4,2.74 9.47,24 9,27.09c2.63,-2.65 13,-3.08 15.66,-5.73c1.11,-1.11 7.1,-6.65 8,-7.94s7.58,-4 8.31,-5.36c2.73,-4.89 -19.36,-23.42 -16.53,-28.25a1.26,1.26 0 0 0 0.23,-0.76a1.24,1.24 0 0 0 -0.37,-0.59c-1.81,-1.85 -4.21,-3 -6.39,-4.37s-4.28,-3.28 -4.87,-5.8a21,21 0 0 0 -5.65,3.82q-6.08,5.21 -11.95,10.63c-1.53,1.42 -4.49,3.31 -5.2,5.34c-0.84,2.18 2.3,3.73 3.76,4.92z"/>
  <path id="svg_11" fill="#514e7f" d="m392.84,95.9a65.08,65.08 0 0 0 -9.46,7.74c-2.74,2.71 -5.34,5.85 -6,9.64c-0.28,1.49 -0.24,3 -0.47,4.51c-1,6.55 -6.66,11.35 -9.16,17.48a30.31,30.31 0 0 0 -1.59,5.85a69.15,69.15 0 0 0 -1.15,11.48c-0.06,3.73 3.6,6.3 4.94,9.78s1.7,7.06 2.38,10.63c1.28,6.74 3.63,13.24 6,19.7c4.93,13.62 20.91,51.27 25.84,64.9c15.11,-3.79 55.33,-12.5 68.71,-20.49c4.46,-2.66 -30.95,-32.67 -26.18,-34.74a1.78,1.78 0 0 0 1.34,-2.51c-4.77,-20.86 -19.69,-38 -26.46,-58.31c-2.35,-7.05 -6.57,-13.07 -9.77,-19.77c-2.9,-6.07 -4.45,-12.78 -7.92,-18.55a11.7,11.7 0 0 0 -2.53,-3.15a14.92,14.92 0 0 0 -2.79,-1.69c-1.98,-0.96 -3.82,-1.53 -5.73,-2.5z"/>
  <circle id="svg_12" fill="#a1616a" r="23.65" cy="77.75" cx="357.88"/>
  <path id="svg_13" fill="#464353" d="m381.94,88.86a7.93,7.93 0 0 1 8.89,-1.28c1.6,0.83 3,2.51 2.64,4.27l11.73,0.18a23.55,23.55 0 0 1 5.56,0.51a8.08,8.08 0 0 1 4.64,2.91c0.14,0.19 0.3,0.42 0.54,0.45a0.86,0.86 0 0 0 0.54,-0.18a10.18,10.18 0 0 1 5.84,-1c6.34,0.41 12.2,3.58 17.17,7.54a5.55,5.55 0 0 1 2,2.49c0.41,1.33 -0.08,3 1,3.95c0,11 3.78,21.28 6.3,32c0.45,1.91 2.28,3.6 3.55,5.1a20.57,20.57 0 0 1 3.79,5.66c2.14,5.56 -0.81,12.1 1.27,17.68c0.88,2.36 2.58,4.3 4,6.35a16.42,16.42 0 0 1 3.42,8.2c0.09,1.34 -0.08,2.69 0,4a24.21,24.21 0 0 0 1,5.31q1.28,4.84 2.68,9.67c1.52,5.2 3.5,10.81 8.16,13.58c-11.25,1.91 -23.11,3.78 -33.83,-0.13a17.54,17.54 0 0 1 -4.22,-2.11c-3.87,-2.76 -5.74,-7.48 -7.41,-11.94c-1.86,-5 -3.75,-10.09 -4.13,-15.41a17.69,17.69 0 0 0 -0.71,-5c-1.09,-2.9 -4,-4.65 -6.64,-6.26a31.88,31.88 0 0 1 -8,-6.22a12.43,12.43 0 0 1 -3.24,-9.34c0.2,-1.65 0.85,-3.24 0.91,-4.9s-0.68,-3.56 -2.27,-4c-8.19,-2.48 -12.1,-12.18 -13.92,-20.54a65.94,65.94 0 0 1 -1.05,-13.1l-0.11,-8.53a11.26,11.26 0 0 1 -3.68,-8.09a9.61,9.61 0 0 0 -0.05,-2.68a7.39,7.39 0 0 0 -1.88,-2.85a25.44,25.44 0 0 1 -4.49,-6.29z"/>
  <path id="svg_14" fill="#464353" d="m356.75,115.9c-0.27,2.64 0.33,5.35 -0.26,7.94c-0.23,1 -0.63,2 -0.92,2.93a17.2,17.2 0 0 0 1.09,11.13a62,62 0 0 0 5.69,9.85a16,16 0 0 1 1.82,3.41a17.65,17.65 0 0 1 0.7,3.89a120.83,120.83 0 0 0 2.78,15.72c1.12,4.48 13.84,42.78 16.8,46.33a3.77,3.77 0 0 0 2.28,1.55a4.15,4.15 0 0 0 1.94,-0.4l6,-2.3a3.92,3.92 0 0 0 1.39,-0.76a3.58,3.58 0 0 0 0.86,-2.36c0.43,-4.88 -12.32,-43.45 -13.94,-48.06c-4.9,-13.92 -11.42,-27.34 -14.61,-41.75c-0.89,-4 -1.36,-10.16 -4.29,-13.35c-1.21,-1.32 -0.8,-0.76 -2.25,-0.07a16.42,16.42 0 0 0 -2.12,1.11a6.94,6.94 0 0 0 -2.96,5.19z"/>
  <path id="svg_15" fill="#464353" d="m472.16,202.56"/>
  <path id="svg_16" fill="#f55455" d="m374.96,142.31c1.61,8.51 3.27,17 4.92,25.51l23.48,-6.15c0.19,-2.46 -1.12,-4.74 -2,-7c-2.14,-5.37 -2.19,-11.35 -3.92,-16.87c-1.31,-4.2 -3.59,-8.06 -4.82,-12.29c-0.71,-2.46 -1.07,-5 -1.77,-7.49a54.4,54.4 0 0 0 -2.76,-7.15a44.76,44.76 0 0 0 -5.12,-9.49c-3,1.12 -6.2,2.42 -7.91,5.13a11.08,11.08 0 0 0 -1.46,5c-0.41,5.27 1.5,10.57 0.87,15.81a46.5,46.5 0 0 0 0.49,14.99z"/>
  <path id="svg_17" fill="#464353" d="m403.75,255.51c1.32,5 -0.59,10.26 -2.15,15.21a117.88,117.88 0 0 0 -4.78,22.9a19.82,19.82 0 0 1 -1.18,5.79c-0.74,1.67 -2,3.08 -2.86,4.67c-2.36,4.18 -2.3,9.28 -1.79,14.06c0.34,3.15 0.85,6.29 1.48,9.39c0.77,3.79 1.72,7.75 0.61,11.45c1.86,-0.41 3.12,2 3,3.89s-0.73,4 0.18,5.63c2.3,0.84 2.32,4 2.25,6.45a54.25,54.25 0 0 0 1.6,12.6q5.22,25.1 11.08,50.06c8.45,2.62 18.32,5.35 26.38,1.72c1.5,-0.67 3,-1.74 3.34,-3.36a5.86,5.86 0 0 0 -0.32,-2.58l-3.82,-13.9c-0.93,-3.36 -1.86,-6.83 -1.37,-10.28c0.37,-2.57 1.49,-5.34 0.23,-7.61c-0.43,-0.78 -1.11,-1.39 -1.61,-2.13c-2,-2.93 -0.95,-6.85 -0.79,-10.4a8.24,8.24 0 0 0 -0.16,-2.38a11.88,11.88 0 0 0 -1.14,-2.61a39.92,39.92 0 0 1 -4.4,-19.86a4.91,4.91 0 0 0 -0.35,-2.59a8.38,8.38 0 0 1 -0.65,-1.06a2.9,2.9 0 0 1 0.21,-1.91a17.5,17.5 0 0 1 -3.08,-3a4.31,4.31 0 0 0 0.74,-6.74a2.25,2.25 0 0 0 1.07,-3.87c-0.49,-0.34 -1.14,-0.49 -1.49,-1c-0.54,-0.74 -0.1,-1.77 0.34,-2.56l2.33,-4.21c1.74,-3.13 2.13,-7 4,-10c2.68,-4.37 4.43,-9.24 6.16,-14.06l6.73,-18.57l4.53,3.93a14.32,14.32 0 0 1 3.72,4.24a18.3,18.3 0 0 1 1.21,5.08c1.66,10.08 8,18.82 10.35,28.75c0.52,2.21 0.87,4.53 2.14,6.42a14,14 0 0 1 1.22,1.84a9.76,9.76 0 0 1 0.51,3.05a14.23,14.23 0 0 0 6,10.2c2.23,1.53 5,2.58 6.21,5a9.32,9.32 0 0 0 1,2.13c1.08,1.3 3.41,1.45 3.87,3.08c0.26,0.91 -0.22,2 0.29,2.8a2.65,2.65 0 0 0 1.11,0.83l6.51,3.25c7.28,3.64 11,12 16.37,18.09a39,39 0 0 1 4.9,6.48c2.32,4.15 3.39,9.36 7.31,12a11.06,11.06 0 0 1 2.84,2.11c1.23,1.62 0.78,3.89 0.89,5.93s1.67,4.47 3.61,3.85a14.23,14.23 0 0 0 0,7.55a38,38 0 0 0 23.06,-9.34c1.9,-1.66 3.73,-3.78 3.75,-6.3a2.26,2.26 0 0 0 -0.28,-1.25a3.57,3.57 0 0 0 -1.47,-1.11c-6.09,-3.3 -7.92,-10.95 -11,-17.16c-2.69,-5.48 -6.67,-10.2 -10,-15.29c-7.24,-10.95 -12.18,-24.2 -23.13,-31.43c-2.41,-1.59 -5.21,-3 -6.42,-5.63c-0.67,-1.47 -0.75,-3.15 -1.28,-4.67s-1.8,-3 -3.42,-3c0.9,-2.2 0.72,-4.88 0.78,-7.26a9.17,9.17 0 0 0 -0.36,-3.13a15.23,15.23 0 0 0 -1.61,-3.1a29.74,29.74 0 0 1 -4.12,-16c0.08,-2.89 0.59,-5.87 -0.28,-8.63c-0.44,-1.39 -1.21,-2.66 -1.74,-4a25,25 0 0 1 -1.25,-7.52l-0.6,-9.61a47.28,47.28 0 0 0 -1.24,-9.5c-2,-7.46 -4,-38.71 -10.85,-42.23s-18.62,20.53 -26.33,21a34.29,34.29 0 0 0 -10,1.93c-5.13,1.92 -9.43,5.5 -13.62,9l-14.18,11.91c-3,2.47 -5.48,4.83 -8.79,6.57z"/>
  <path id="svg_18" fill="#464353" d="m335.69,51.49c3.12,-4.26 8.48,-6.52 13.76,-6.71s10.48,1.47 15.21,3.82a18.79,18.79 0 0 0 4.44,1.82c2.5,0.51 5.28,-0.17 7.54,1c3,1.59 3.58,5.64 3.32,9s-0.89,7.09 0.9,10a23.12,23.12 0 0 1 1.73,2.61c0.77,1.73 0.32,3.73 -0.14,5.56c-1.17,-1 -1.83,-2.51 -2.87,-3.67s-2.85,-1.94 -4.14,-1.07s-1.27,2.45 -1.34,3.87s-0.43,3.12 -1.77,3.58a2.87,2.87 0 0 1 -3,-1.17c-2.29,-2.8 -1.37,-7.27 -3.64,-10.09c-1.29,-1.6 -3.44,-2.38 -4.63,-4.06c-0.94,-1.32 -1.18,-3 -2,-4.42s-2.73,-2.46 -4,-1.48a5.41,5.41 0 0 0 -1.07,1.43a6.15,6.15 0 0 1 -7.3,2.2a12.21,12.21 0 0 0 -3.16,-1.37a3.91,3.91 0 0 0 -3.61,2a7.81,7.81 0 0 0 -1,4.18c0,2 0.36,4.13 -0.78,5.73a5.93,5.93 0 0 1 -1.6,1.52c-1.67,1.07 -4,1.79 -5.54,0.57a4.16,4.16 0 0 1 -1.24,-3.88a31.37,31.37 0 0 1 1.18,-4.1c0.88,-3.1 -0.27,-6.59 0.69,-9.51a30.36,30.36 0 0 1 4.06,-7.36z"/>
  <path id="svg_19" fill="#f55455" d="m348.36,122.04a3.64,3.64 0 0 0 0.22,2.17a3.45,3.45 0 0 0 1.18,1.13a24.26,24.26 0 0 0 11.14,3.61a3.39,3.39 0 0 1 1.54,0.4c0.94,0.62 1,2 0.65,3.1a8.07,8.07 0 0 0 -0.71,3.3c0.29,2.09 2.77,3 4.86,3.31c2.93,0.37 6.14,0.18 8.46,-1.65a13.07,13.07 0 0 0 3.49,-5.23c5.74,-13.19 7.75,-27.77 13.56,-40.92a8.68,8.68 0 0 0 0.87,-2.74a2.7,2.7 0 0 0 -1.08,-2.52c-1.08,-0.67 -2.76,-0.29 -3.49,-1.34c-0.36,-0.53 -0.32,-1.25 -0.64,-1.81c-0.67,-1.19 -2.43,-1 -3.63,-1.69c-0.94,-0.5 -1.59,-1.53 -2.64,-1.73a3.32,3.32 0 0 0 -2.73,1.18c-3.41,3.18 -5.2,7.69 -7.1,11.95a140.09,140.09 0 0 1 -10.16,18.84c0.45,-0.7 -2.16,-6 -3.18,-6.23c-1.79,-0.36 -4.08,2.78 -5.05,3.95a25.16,25.16 0 0 0 -5.56,12.92z"/>
  <path id="svg_20" opacity="0.1" d="m384.69,82.09a4.79,4.79 0 0 0 -3.71,1.86c-1.07,1.39 -1.28,3.23 -1.55,5a43.45,43.45 0 0 1 -5.89,15.82"/>
  <path id="svg_21" opacity="0.1" d="m389.79,86.08a5.71,5.71 0 0 0 -4.85,2.91a16.35,16.35 0 0 0 -1.22,4.94a27.11,27.11 0 0 1 -4.85,10.39"/>
  <path id="svg_22" fill="#33323d" d="m627.45,281.58l0,-12.42a34.48,34.48 0 0 0 -34.48,-34.47l-490.49,0a34.48,34.48 0 0 0 -34.48,34.47l0,22.9l559.45,-10.48z"/>
  <path id="svg_23" fill="#8dd070" d="m238.93,220.13s-1.4,86.86 14,115.44s22,152.91 22,152.91s161.44,16.7 273.94,-20s351.88,-51.71 351.88,-51.71l-40.34,-271.89s-199.29,-12.78 -312.66,41.29s-308.82,33.96 -308.82,33.96z"/>
  <path id="svg_24" opacity="0.1" d="m238.93,220.13s-1.4,86.86 14,115.44s22,152.91 22,152.91s161.44,16.7 273.94,-20s351.88,-51.71 351.88,-51.71l-40.34,-271.89s-199.29,-12.78 -312.66,41.29s-308.82,33.96 -308.82,33.96z"/>
  <path id="svg_25" fill="#8dd070" d="m274.66,251.86s-5.05,71.67 7.62,94.57s13.26,125.13 13.26,125.13s145.29,6.74 248.64,-28.44s320.53,-58 320.53,-58l-24.68,-222.35s-179.7,-1.85 -284.58,47.67s-280.79,41.42 -280.79,41.42z"/>
  <ellipse id="svg_26" transform="rotate(-7.1 -134.09 -37.14)" opacity="0.1" ry="80.9" rx="37.72" cy="403.17" cx="494.25"/>
  <path id="svg_27" opacity="0.2" d="m751.15,12.43s-193.61,49 -284.91,135.25s-283.5,127.09 -283.5,127.09s25.32,83.09 48.74,105.57s67.84,138.8 67.84,138.8s158.77,-33.66 254.57,-103.14s319.07,-157.23 319.07,-157.23l-121.81,-246.34z"/>
  <path id="svg_28" fill="#8dd070" d="m179.83,262.33s25.31,83.1 48.71,105.58s67.84,138.79 67.84,138.79s158.79,-33.65 254.6,-103.13s319.06,-157.2 319.06,-157.2l-121.81,-246.37s-193.6,49 -284.9,135.25s-283.5,127.08 -283.5,127.08z"/>
  <path id="svg_29" opacity="0.1" d="m179.83,262.33s25.31,83.1 48.71,105.58s67.84,138.79 67.84,138.79s158.79,-33.65 254.6,-103.13s319.06,-157.2 319.06,-157.2l-121.81,-246.37s-193.6,49 -284.9,135.25s-283.5,127.08 -283.5,127.08z"/>
  <path id="svg_30" fill="#8dd070" d="m223.54,281.57s17.19,69.77 36.28,87.67s51,115 51,115s140.34,-38.18 227.91,-103.38s287.29,-153.47 287.29,-153.47l-91.71,-204.12s-171.59,53.37 -256.22,132.69s-254.55,125.61 -254.55,125.61z"/>
  <ellipse id="svg_31" transform="rotate(-24.97 -191.82 165.02)" opacity="0.1" ry="80.9" rx="37.72" cy="549.03" cx="393.98999"/>
  <path id="svg_32" opacity="0.1" d="m640.69,293.77l0,345a29.83,29.83 0 0 1 -29.84,29.83l-513,0a29.83,29.83 0 0 1 -29.82,-29.83l0,-379.78c14.7,5.46 14.7,5.46 29.82,5l513,0a29.84,29.84 0 0 1 29.84,29.78z"/>
  <path id="svg_33" fill="#504f60" d="m640.69,298.16l0,345a29.84,29.84 0 0 1 -29.84,29.83l-513,0a29.83,29.83 0 0 1 -29.82,-29.83l0,-379.79c14.7,5.45 14.7,5.45 29.82,5l513,0a29.84,29.84 0 0 1 29.84,29.79z"/>
  <path id="svg_34" opacity="0.1" d="m639.23,425.71l0,110.33l-107,0a55.17,55.17 0 0 1 0,-110.33l107,0z"/>
  <path id="svg_35" fill="#33323d" d="m641.69,422.77l0,110.35l-107,0a55.17,55.17 0 0 1 0,-110.33l107,-0.02z"/>
  <circle id="svg_36" opacity="0.1" r="21.51" cy="480.88" cx="538.82"/>
  <circle id="svg_37" fill="#f55455" r="21.51" cy="478.96" cx="542.28"/>
  <path id="svg_38" fill="#fbbebe" d="m826.42,421.82c0.85,9.21 -6.12,18.15 -4.09,27.17c0.44,1.93 1.27,3.75 1.57,5.7c0.84,5.36 -2.35,10.43 -5.4,14.91l-26.2,38.44a23.87,23.87 0 0 1 -3.74,4.62c-5,4.46 -12.52,4 -19.1,5.33a32.64,32.64 0 0 0 -12.8,5.66a0.82,0.82 0 0 0 -0.12,1.12a11,11 0 0 0 9.52,4.47c0.69,0.91 0,2.24 -1,2.89c-1.41,1 -3.34,1.24 -3.62,3.62a3.93,3.93 0 0 0 0.48,2.4a7.45,7.45 0 0 0 4.58,3.19c9.07,2.77 18.87,-2.1 25.66,-8.73s11.66,-15 18.32,-21.75c3.69,-3.73 7.88,-6.93 11.68,-10.55c7.58,-7.22 13.47,-16 19.16,-24.79c1.71,-2.65 3.43,-5.37 4.15,-8.44s0.38,-6.17 1.19,-9.14c1.06,-3.9 3.91,-7 6.28,-10.27c4.65,-6.4 7.75,-14.23 7.14,-22.11s-5.5,-15.67 -12.94,-18.35a11.5,11.5 0 0 0 -7.25,-0.44c-3.05,0.94 -5.3,3.46 -7.38,5.87l-5,5.75a13.48,13.48 0 0 0 -2.9,4.4a4.61,4.61 0 0 0 1,4.89"/>
  <path id="svg_39" opacity="0.05" d="m826.42,421.82c0.85,9.21 -6.12,18.15 -4.09,27.17c0.44,1.93 1.27,3.75 1.57,5.7c0.84,5.36 -2.35,10.43 -5.4,14.91l-26.2,38.44a23.87,23.87 0 0 1 -3.74,4.62c-5,4.46 -12.52,4 -19.1,5.33a32.64,32.64 0 0 0 -12.8,5.66a0.82,0.82 0 0 0 -0.12,1.12a11,11 0 0 0 9.52,4.47c0.69,0.91 0,2.24 -1,2.89c-1.41,1 -3.34,1.24 -3.62,3.62a3.93,3.93 0 0 0 0.48,2.4a7.45,7.45 0 0 0 4.58,3.19c9.07,2.77 18.87,-2.1 25.66,-8.73s11.66,-15 18.32,-21.75c3.69,-3.73 7.88,-6.93 11.68,-10.55c7.58,-7.22 13.47,-16 19.16,-24.79c1.71,-2.65 3.43,-5.37 4.15,-8.44s0.38,-6.17 1.19,-9.14c1.06,-3.9 3.91,-7 6.28,-10.27c4.65,-6.4 7.75,-14.23 7.14,-22.11s-5.5,-15.67 -12.94,-18.35a11.5,11.5 0 0 0 -7.25,-0.44c-3.05,0.94 -5.3,3.46 -7.38,5.87l-5,5.75a13.48,13.48 0 0 0 -2.9,4.4a4.61,4.61 0 0 0 1,4.89"/>
  <path id="svg_40" fill="#3f3d56" d="m846.25,658.92c-5.72,3.49 -12.85,3.7 -19.5,2.89c-1.07,-0.13 -2.34,-0.21 -3,0.62c-1,1.2 0.18,3 1.4,3.93a28.85,28.85 0 0 0 13.39,5.51a88.17,88.17 0 0 0 13.1,0.87c12,0.21 24,0.41 35.81,-1.31a5.07,5.07 0 0 0 2,-0.58a3.66,3.66 0 0 0 1.48,-2.25c0.81,-3.08 -0.75,-6.38 -3.11,-8.52s-5.39,-3.33 -8.35,-4.48l-10.4,-4.05c-2.44,-0.95 -6.35,-3.47 -9,-3.27c-4.98,0.36 -9.69,8.22 -13.82,10.64z"/>
  <path id="svg_41" opacity="0.05" d="m846.25,658.92c-5.72,3.49 -12.85,3.7 -19.5,2.89c-1.07,-0.13 -2.34,-0.21 -3,0.62c-1,1.2 0.18,3 1.4,3.93a28.85,28.85 0 0 0 13.39,5.51a88.17,88.17 0 0 0 13.1,0.87c12,0.21 24,0.41 35.81,-1.31a5.07,5.07 0 0 0 2,-0.58a3.66,3.66 0 0 0 1.48,-2.25c0.81,-3.08 -0.75,-6.38 -3.11,-8.52s-5.39,-3.33 -8.35,-4.48l-10.4,-4.05c-2.44,-0.95 -6.35,-3.47 -9,-3.27c-4.98,0.36 -9.69,8.22 -13.82,10.64z"/>
  <path id="svg_42" fill="#464353" d="m853.54,520.86c-4.33,5.76 -8.81,12.41 -7.74,19.54c0.58,3.84 2.73,7.23 4.31,10.78c2.14,4.82 3.26,10 4.36,15.16c1.62,7.54 3.25,15.1 4.24,22.76c1.13,8.65 -4.18,33.68 -4.67,42.39c-0.12,2.1 -0.37,4.37 -1.83,5.88c-0.57,0.6 -1.33,1.08 -1.59,1.86a3.18,3.18 0 0 0 0.35,2.2c2.44,5.5 7.43,9.6 13,11.94s19,6.38 25.07,6.59a5,5 0 0 0 2.36,-0.31a4.59,4.59 0 0 0 1.82,-2.09c4.35,-8.32 0.17,-37.9 0.23,-47.29c0.06,-7.83 1.91,-15.61 1.57,-23.43c-0.28,-6.28 -2,-12.42 -2.57,-18.68c-1,-10.26 0.88,-20.57 2.77,-30.71c1.44,-7.78 2.89,-15.56 4.74,-23.24c1.13,-4.69 2.44,-9.42 5,-13.49c2,-3.23 4.81,-5.93 7.14,-9a40.62,40.62 0 0 0 8,-29.74c-0.14,-1 -15,3.77 -16.31,4.34a50.81,50.81 0 0 0 -14.54,9.35c-3.44,3.28 -6.15,7.66 -9.16,11.33q-6.39,7.79 -12.62,15.69q-7.11,9.03 -13.93,18.17z"/>
  <path id="svg_43" opacity="0.05" d="m853.54,520.51c-4.33,5.76 -8.81,12.42 -7.74,19.54c0.58,3.85 2.73,7.24 4.31,10.79c2.14,4.81 3.26,10 4.36,15.15c1.62,7.55 3.25,15.11 4.24,22.76c1.13,8.66 -4.18,33.68 -4.67,42.39c-0.12,2.1 -0.37,4.38 -1.83,5.89c-0.57,0.59 -1.33,1.07 -1.59,1.85a3.17,3.17 0 0 0 0.35,2.2c2.44,5.51 7.43,9.6 13,12s19,4.49 25.07,4.69a5,5 0 0 0 2.36,-0.31a4.52,4.52 0 0 0 1.82,-2.08c4.35,-8.32 0.17,-36 0.23,-45.4c0.06,-7.84 1.91,-15.61 1.57,-23.44c-0.28,-6.28 -2,-12.42 -2.57,-18.67c-1,-10.27 0.88,-20.58 2.77,-30.72c1.44,-7.77 2.89,-15.55 4.74,-23.24c1.13,-4.69 2.44,-9.42 5,-13.49c2,-3.23 4.81,-5.93 7.14,-9a40.6,40.6 0 0 0 8,-29.74c-0.14,-1 -15,3.77 -16.31,4.34a51.05,51.05 0 0 0 -14.54,9.36c-3.44,3.27 -6.15,7.65 -9.16,11.32q-6.39,7.79 -12.62,15.7q-7.11,8.96 -13.93,18.11z"/>
  <circle id="svg_44" fill="#fbbebe" r="24.27" cy="369.73" cx="805.36"/>
  <path id="svg_45" fill="#fbbebe" d="m827.22,368.71a31.43,31.43 0 0 0 20.15,14.06l-1.83,6.65c-3.16,11.42 -6.71,23.5 -15.53,31.42c1,-3.87 -0.28,-8 -2.46,-11.36s-5.24,-6 -8.24,-8.61l-13.97,-12.1a4.21,4.21 0 0 1 -1,-1.18a3.55,3.55 0 0 1 0,-2.66c1.78,-5.54 6.86,-9 11,-12.74a38.1,38.1 0 0 0 5.53,-6.44c2.79,-3.98 4.52,0.02 6.35,2.96z"/>
  <path id="svg_46" fill="#464353" d="m773.39,345.33l-0.55,-4.56c3.83,1 7.47,-2.26 9.92,-5.63s4.72,-7.34 8.45,-8.75c4.53,-1.7 9.33,1 13.66,3.28a43.19,43.19 0 0 0 15.67,5.1a10.31,10.31 0 0 1 2.59,0.42c2.82,1 4.16,4.54 4.57,7.75s0.3,6.62 1.69,9.48c1,2.17 2.86,3.78 4,5.92c3,5.74 0.1,13.59 3.23,19.22l-7.78,-7.13c-0.71,-0.65 -1.71,-1.33 -2.5,-0.78c-0.62,0.44 -0.67,1.39 -0.92,2.15c-0.75,2.22 -3.53,2.88 -5.54,2s-3.48,-2.79 -5,-4.53c-3.44,-4.06 -7.54,-7.63 -12.34,-9.36a15.84,15.84 0 0 0 -13,0.86c-3.63,2.05 -6.29,6.83 -10.74,7c-6.1,0.23 -8.64,-11.13 -11.46,-15.62a5.5,5.5 0 0 0 1.6,-6.88c0.41,-0.17 4.36,-0.64 4.45,0.06z"/>
  <path id="svg_47" fill="#a1616a" d="m473.2,203.44a47.21,47.21 0 0 0 -5.39,5.66a11.33,11.33 0 0 0 -2.48,7.27a3.72,3.72 0 0 0 0.7,2.13a1.8,1.8 0 0 0 2,0.61a2.69,2.69 0 0 0 1,-0.88a48.27,48.27 0 0 1 3.36,-3.64c0.43,-0.43 1,-0.88 1.58,-0.72a1.69,1.69 0 0 1 0.68,0.45a4.6,4.6 0 0 1 1.41,2.2c0.35,1.53 -0.54,3.06 -1.55,4.26s-2.2,2.35 -2.61,3.86a1.71,1.71 0 0 0 0,1.24a1.86,1.86 0 0 0 0.78,0.66a11.16,11.16 0 0 0 9.44,0.62c2,-0.81 3.78,-2.2 5.84,-2.92a13.5,13.5 0 0 0 2.58,-1a5.36,5.36 0 0 0 2.29,-3.43a14.14,14.14 0 0 0 0.15,-4.21a48.41,48.41 0 0 0 -3.44,-15.83a2,2 0 0 0 -0.58,-0.84a1.85,1.85 0 0 0 -1,-0.27c-2.56,-0.27 -6.76,-1.58 -9.23,-0.63a6.52,6.52 0 0 0 -2.18,1.94c-0.46,0.51 -3.35,2.8 -3.35,3.47z"/>
  <path id="svg_48" fill="#464353" d="m472.39,201.18c0,-2.44 -3,-8.33 1.77,-8.72c0,-2.61 -3.69,-4.23 -3,-7c0.22,-0.92 1,-1.67 1.09,-2.61c0.3,-2.67 -4.52,-4.12 -3.72,-6.68c0.3,-1 1.36,-1.58 1.59,-2.57c0.54,-2.31 -3.59,-3.34 -3.67,-5.71c0,-0.8 0.45,-1.55 0.41,-2.35c0,-1 -0.87,-1.76 -1.35,-2.63c-1.25,-2.23 -0.64,-5.68 -2.92,-6.83c1.51,0.13 2,-2.11 1.38,-3.48s-1.89,-2.56 -1.9,-4.08a6.16,6.16 0 0 0 0,-1.66c-0.42,-1.46 -2.81,-1.58 -3.21,-3a12.78,12.78 0 0 1 -0.05,-1.64c-0.16,-1.13 -1.32,-1.85 -2.41,-2.17a9.83,9.83 0 0 1 -3.22,-1.15c-0.7,-0.53 -1.51,-1.41 -2.26,-1c-0.28,0.17 -0.42,0.49 -0.63,0.73c-0.9,1.05 -2.62,0.59 -3.75,-0.18c-3.34,-2.27 -5,-6.34 -5.71,-10.31s-0.69,-8.07 -1.58,-12a25.64,25.64 0 0 0 -1.08,-3.6c-0.38,-1 -1.6,-2.57 -1.68,-3.58c-0.18,-2.3 4.58,-0.73 6.39,-0.5a28.46,28.46 0 0 1 5.19,1a55.49,55.49 0 0 1 5.31,2.33c7.22,3.19 15.94,3.58 21.74,8.94c1.91,1.76 3.52,4.07 6,4.87a27.15,27.15 0 0 1 3.36,0.87c2.75,1.29 3.18,4.94 4.68,7.58a14.86,14.86 0 0 1 1.23,2.2a8.48,8.48 0 0 1 0.4,2.8l0.21,6.93c0.34,11.61 0.68,23.25 -0.56,34.79c-0.4,3.81 -1,7.73 0.13,11.39c0.3,1 0.72,1.94 1,2.95a18,18 0 0 1 0.38,3.6l0.16,4.49a1.4,1.4 0 0 1 -0.22,1a1.44,1.44 0 0 1 -1.21,0.29c-6.25,-0.56 -12.57,-4.08 -18.47,-1.95"/>
  <ellipse id="svg_49" fill="#504f60" ry="10.69" rx="73.96" cy="535.49" cx="757.61"/>
  <path id="svg_50" fill="url(#b6a338e9-6675-4055-aeec-b883651a73ae)" d="m821.24,536.01c-1.3,-5.57 -2.11,-10.46 -2.11,-10.46s0.3,-6.06 -2.42,-10.61l0,-1.52l0,0l0,-11.2a38.18,38.18 0 0 1 2.83,-5.87c2,-3.52 0,-16.42 0,-16.42s-7.47,-18.19 -5.66,-29.73s-15.34,-51.24 -15.34,-51.24a50.59,50.59 0 0 1 1.61,-11.34a8.65,8.65 0 0 0 0.22,-2.38c0,-0.1 0,-0.19 0,-0.29s0,0.06 0,0.09c-0.26,-7.61 -6.28,-21.87 -6.28,-21.87l0.81,-27.18s3.84,-16 -2.42,-37.55c-2.19,-7.51 -3.59,-13.52 -4.48,-18.16c-0.1,-0.52 -0.2,-1 -0.28,-1.51c12.89,-2 22.74,-3.6 22.74,-3.6s-7.48,-31.29 -12.53,-36.77s-9.09,-22.69 -9.09,-22.69s-2.63,-22.09 1.62,-28.55s4.85,-17.6 4.85,-17.6s9.69,-7 10.91,-10.17s3.23,-10.17 3.23,-13.88s-1.21,-7 -0.81,-9s-2.83,-9.39 -1.21,-12.91a9.47,9.47 0 0 0 0.64,-3.39a0.44,0.44 0 0 0 0,-0.1s0,0 0,0a47.51,47.51 0 0 0 -0.85,-9.18a26.05,26.05 0 0 0 -9.6,-5.13l-0.21,-0.84l-0.55,-2.2a10.67,10.67 0 0 0 -0.95,-0.56l0,-0.8l-0.09,-3.18l1.52,-7.14c3,-12.42 -13.59,-14.27 -13.59,-14.27a8.75,8.75 0 0 0 -4.7,-4.12c-3.33,-1.17 -0.55,18.68 1,20c1.17,1 4.79,7.18 6.54,10.24l0,0l0.28,0.5a7,7 0 0 0 -0.76,0.8l0.63,4.31l0.1,0.66a17.89,17.89 0 0 0 -2.65,4.51s3,3.32 2.43,7s0.93,8.35 1,8.6c-0.18,-0.21 -2.31,-2.51 -4.44,-1.95s-8.08,2.35 -8.08,2.35s-4.44,0.78 -4,1.76s-3,5.28 -3,5.28l-11.94,-11.32c-0.12,-0.34 -0.25,-0.68 -0.35,-1a27.53,27.53 0 0 1 -1,-5a27.31,27.31 0 0 0 3.82,-1.21a8.24,8.24 0 0 0 3.3,-2.12c1.21,-1.43 1.44,-3.37 1.93,-5.15c0.94,-3.48 3,-6.57 4.43,-9.88a32.12,32.12 0 0 0 2.25,-17.78a11.6,11.6 0 0 0 -1.83,-5.2c-1.95,-2.68 -5.49,-3.77 -8.06,-5.91s-4.23,-5.41 -7.23,-7c-2.71,-1.45 -6,-1.28 -9.06,-0.78a48.83,48.83 0 0 0 -16.93,6.16c-1.74,1 -3.66,2.23 -5.66,1.86c-1.72,-0.31 -3,-1.68 -4.08,-3a1,1 0 0 1 0.05,-0.16a1,1 0 0 1 -0.13,-0.16a21.09,21.09 0 0 0 -1.86,8.94c0,0.48 0,1 0.06,1.43l0,0.5c0,0.14 0,0.28 0,0.41l0,0a2.28,2.28 0 0 1 -0.09,0.63a4.55,4.55 0 0 1 -1.12,1.61a10.79,10.79 0 0 0 -1,1.33c0,-0.16 0.1,-0.32 0.16,-0.49a7.11,7.11 0 0 0 -1.24,3.77a3.85,3.85 0 0 0 0.9,2.7a13,13 0 0 0 1.95,1.56a22.75,22.75 0 0 0 -0.36,4a23.11,23.11 0 0 0 11.26,19.71c0.14,0.33 0.27,0.67 0.4,1c1.53,4 2.68,8.7 2.17,13c0,0.31 -0.09,0.63 -0.14,0.94s-0.3,0.33 -0.43,0.5l0,0s-19.73,0.2 -24.37,-4s-11.72,10.27 -11.72,10.27s-7.07,1.37 -8.49,0s-9.69,-0.19 -9.69,-0.19a17.83,17.83 0 0 0 -12.33,-4.5a36.19,36.19 0 0 0 -9,-5l0,0l-0.22,-0.08l0,0a10.08,10.08 0 0 0 -4.45,-0.56s-9.7,-8 -12.53,-12.32s-16.3,-20.27 -16.36,-20.34l0,-0.77l-0.15,-2.32a8.31,8.31 0 0 1 -1.21,0.1c-0.07,-0.23 -0.17,-0.5 -0.27,-0.81a44.73,44.73 0 0 0 -2.86,-6.57s0,-2.93 0.85,-3.67s-0.35,-11.49 -0.35,-11.49s-8.74,-20.43 -16.57,-5.18c0,0 -14.8,9.87 -2.38,21.37c0,0 5,2.4 5.66,4.3c0.46,1.23 2.14,4.68 3.27,7l0.51,1l-0.14,0.12l0.18,1.92l0.08,0.74c-2.34,1.33 -3.93,2.65 -3.54,3.64a21.87,21.87 0 0 1 1.41,5.28s17.18,21.52 19.4,30.71c0,0 46.07,27.38 61.22,29.33l-2.68,13.65a108.94,108.94 0 0 0 -0.6,11.15c0.2,2.93 -1.82,16.23 -1.82,16.23s-2.63,19.56 -4.85,22.3s-1.82,14.47 -1.82,14.47a98.86,98.86 0 0 1 -3,16.62c-2.22,7.43 -0.61,16.63 -0.61,16.63s-7.67,17.6 10.71,5.67c0,0 9,-0.56 19.42,-0.92c0,0.34 0,0.69 0,1c0,1.34 0,2.79 -0.07,4.31c-0.14,10.08 -0.2,24 0.26,34.48c0.81,18.58 6.47,55.35 6.47,55.35l0,18.51a25.19,25.19 0 0 0 -0.54,5.28a34.36,34.36 0 0 0 5,18.49l1.42,12.32s3.32,8.12 3.38,13a6.82,6.82 0 0 1 -0.14,1.17a7.87,7.87 0 0 0 -0.16,1.89c-0.19,5.6 3.18,19 3.18,19s0.2,13.49 2.22,14.28c1.73,0.67 -2.31,7.77 -3.51,9.81a2.79,2.79 0 0 1 -0.07,-0.38l-0.25,0.4a9.58,9.58 0 0 0 -0.63,3.42a4.9,4.9 0 0 0 2.24,4.74c3.84,2.35 5.9,4.3 2.64,5.08a33.94,33.94 0 0 0 -3.56,0.75c0,-0.15 -0.12,-0.31 -0.17,-0.45a2.14,2.14 0 0 0 -1.33,2.36a10,10 0 0 0 1.19,4.54c3.23,7.24 5.47,10 5.47,10l1.55,-0.17a7.56,7.56 0 0 1 -0.9,1.67a6.44,6.44 0 0 1 -2.28,2a7.06,7.06 0 0 1 -2.77,0.95a7.8,7.8 0 0 0 -5.72,2.78c-2,2.61 -3.28,6.16 0.7,9.28l14.45,5s24.86,3.23 23.54,-2.35s-2.12,-10.46 -2.12,-10.46a22.05,22.05 0 0 0 -2,-9.89a12.85,12.85 0 0 0 -0.88,-1.46l0.88,-0.09s1.82,-12.33 4.24,-14.67c0.56,-0.54 0.69,-1 0.56,-1.28c0.25,-0.67 -0.39,-1.06 -1.2,-1.29l-0.18,0.49a11.79,11.79 0 0 0 -2.41,-0.27s-0.81,-6.45 1.82,-8.8a2.49,2.49 0 0 0 0.51,-1.92a10.32,10.32 0 0 0 -0.28,-2.63a1.29,1.29 0 0 1 -0.09,0.16c-1.32,-5.86 -5.8,-15.17 -5.8,-15.17s-0.2,-5.86 1.42,-8.21s-0.21,-31.88 -0.21,-31.88s0.61,-14.27 -1.21,-20.92s2.22,-14.48 2.22,-14.48s0,-0.15 0,-0.42l0,-0.1l-0.23,-2.25a0.58,0.58 0 0 0 0,0.14c-0.41,-3.78 -1.18,-10.63 -1.75,-13.79c-0.81,-4.5 0.21,-26 0.21,-26l3.63,-9.2l6.47,15.85l6.87,21.12s3.4,4.46 3.48,9c0,0.22 0,0.44 0,0.66a11.54,11.54 0 0 0 -0.08,1.41a12.56,12.56 0 0 0 2.09,7.53s1.82,10 4.65,12.51s2.83,7.43 2.83,7.43s3.43,14.48 5,17c1.36,2.14 1.43,8 1.42,9.83l0,0c0,0.33 0,0.52 0,0.52s0.48,5.18 0.46,9.52c0,0.54 0,1.06 0,1.55a0.43,0.43 0 0 0 0,-0.11a15.06,15.06 0 0 1 -0.42,3.52l-0.06,0.2c0,-0.25 0,-0.49 0.07,-0.73a36.75,36.75 0 0 0 -1,9c-0.09,5.2 0.7,11.36 3.85,15c5.46,6.26 8.89,5.48 8.89,5.48s-2.62,7.82 -5.86,9.39a1.52,1.52 0 0 0 -0.34,0.22c0,-0.16 -0.06,-0.31 -0.08,-0.46a3.81,3.81 0 0 0 -1,2.92c-0.23,3.44 1.94,9 4,11.59a6.53,6.53 0 0 0 2.73,1.6a4.33,4.33 0 0 1 -0.51,0.31a10.86,10.86 0 0 1 -1.11,0.53a5.83,5.83 0 0 1 -1.65,0.43a7.7,7.7 0 0 0 -5.72,2.78c-2,2.6 -3.28,6.15 0.7,9.27l14.45,5s24.7,3.17 23.4,-2.4z"/>
  <path id="svg_51" fill="#2d293d" d="m726.33,545.25l-14,-5c-3.86,-3.12 -2.63,-6.67 -0.68,-9.28a7.48,7.48 0 0 1 5.54,-2.78a6.64,6.64 0 0 0 2.67,-0.95a6.4,6.4 0 0 0 2.22,-2a10.33,10.33 0 0 0 1.59,-5.41s15.36,-4.5 19.56,0a11.37,11.37 0 0 1 1.86,2.73a22.85,22.85 0 0 1 2,9.89s0.78,4.88 2.05,10.46s-22.81,2.34 -22.81,2.34z"/>
  <path id="svg_52" fill="#2d293d" d="m794.77,538.35l-14,-5c-3.86,-3.12 -2.63,-6.67 -0.68,-9.27a7.39,7.39 0 0 1 5.53,-2.78a5.19,5.19 0 0 0 1.6,-0.43a10.61,10.61 0 0 0 1.08,-0.53c3.91,-2.15 3.81,-7.43 3.81,-7.43s15.35,-4.5 19.56,0a11.08,11.08 0 0 1 1.47,2c2.63,4.55 2.34,10.62 2.34,10.62s0.78,4.89 2,10.46s-22.71,2.36 -22.71,2.36z"/>
  <path id="svg_53" opacity="0.1" d="m743.24,519.82a11.37,11.37 0 0 1 1.86,2.73l0,0l-23,2.67a10.33,10.33 0 0 0 1.59,-5.41s15.35,-4.49 19.55,0.01z"/>
  <path id="svg_54" opacity="0.1" d="m813.16,514.93l0,4.31c-3.58,5.89 -20.89,4.6 -25.92,1.65a10.61,10.61 0 0 0 1.08,-0.53c3.91,-2.15 3.81,-7.43 3.81,-7.43s15.35,-4.5 19.56,0a11.08,11.08 0 0 1 1.47,2z"/>
  <path id="svg_55" fill="#464353" d="m815.89,496.35a39.2,39.2 0 0 0 -2.73,5.87l0,15.45c-3.92,6.45 -24.25,4.3 -27,0.78s-5.62,-12.68 -2.53,-14.27s5.67,-9.39 5.67,-9.39s-3.33,0.78 -8.61,-5.48s-3.71,-20.14 -2.73,-23.46s0,-14.47 0,-14.47s0.2,-7.83 -1.36,-10.37s-4.89,-17 -4.89,-17s0,-4.89 -2.74,-7.43s-4.5,-12.52 -4.5,-12.52a12.83,12.83 0 0 1 -1.95,-8.41c0.58,-4.89 -3.33,-10.17 -3.33,-10.17l-6.65,-21.13l-6.26,-15.84l-3.52,9.19s-1,21.51 -0.19,26s2,16.43 2,16.43s-3.91,7.82 -2.15,14.47s1.12,20.94 1.12,20.94s1.76,29.52 0.19,31.87s-1.37,8.22 -1.37,8.22s8,17.2 5.48,19.55s-1.76,8.8 -1.76,8.8s5.47,0 3.13,2.35s-4.11,14.67 -4.11,14.67l-23.65,2.77s-2.16,-2.73 -5.29,-10s0.58,-6.45 3.73,-7.24s1.16,-2.73 -2.56,-5.08s-1.56,-7.63 -1.56,-7.63s5.67,-9.58 3.71,-10.36s-2.15,-14.28 -2.15,-14.28s-3.91,-16 -2.93,-20.34s-3.13,-14.66 -3.13,-14.66l-1.37,-12.32a33.9,33.9 0 0 1 -4.3,-23.28l0,-19s-5.48,-36.76 -6.26,-55.34c-0.5,-11.9 -0.36,-28.14 -0.2,-38.27c0.1,-5.68 0.2,-9.45 0.2,-9.45l84.48,-8.8s-0.08,3.9 1.53,12.55c0.87,4.64 2.22,10.65 4.34,18.16c6.06,21.51 2.35,37.54 2.35,37.54l-0.79,27.19s7.43,18.18 5.87,24.44a52.13,52.13 0 0 0 -1.58,11.36s16.62,39.7 14.86,51.24s5.47,29.73 5.47,29.73s1.98,12.9 0.02,16.42z"/>
  <path id="svg_56" opacity="0.05" d="m767.59,394.47l25.72,-3.43s-14.57,14.87 -25.72,3.43z"/>
  <path id="svg_57" opacity="0.1" d="m789.59,365.91s0.88,9.1 -4.69,12.52c0,0 9.97,-1.56 4.69,-12.52z"/>
  <path id="svg_58" opacity="0.1" d="m788.01,336.97s-21.5,17.7 -29.32,16.23s29.32,-16.23 29.32,-16.23z"/>
  <path id="svg_59" opacity="0.1" d="m735.71,402.77s-16.33,3.71 -16.82,10.27s16.82,-10.27 16.82,-10.27z"/>
  <path id="svg_60" opacity="0.05" d="m739.3,484.33s-23.07,4.3 -16.52,7.23s17.31,5.28 17.31,5.28s7.45,0.39 -0.79,-12.51z"/>
  <g id="svg_61" opacity="0.05">
   <path id="svg_62" d="m718.12,496.22a4.55,4.55 0 0 1 -2.11,-3.34l-0.24,0.41s-2.15,5.28 1.57,7.62c0.42,0.27 0.83,0.54 1.2,0.8c0.69,-0.13 1.43,-0.23 2.14,-0.41c3.15,-0.78 1.16,-2.73 -2.56,-5.08z"/>
   <path id="svg_63" d="m747.84,494.65c0.64,-0.58 0.62,-2.08 0.23,-4c-1,1.51 -1.29,3.87 -1.31,5.66a4.88,4.88 0 0 1 1.08,-1.66z"/>
   <path id="svg_64" d="m744.29,397.36a26.67,26.67 0 0 0 -1.56,7.19a29,29 0 0 1 1.79,-4.94l-0.23,-2.25z"/>
   <path id="svg_65" d="m797.13,387.1a9.18,9.18 0 0 0 0.21,-2.14c-0.29,1.46 -0.49,2.81 -0.64,4c0.13,-0.61 0.27,-1.19 0.43,-1.86z"/>
   <path id="svg_66" d="m743.74,466.89c0.32,-0.48 0.5,-2.1 0.58,-4.35a14.77,14.77 0 0 0 -1.13,5.49a5.25,5.25 0 0 1 0.55,-1.14z"/>
   <path id="svg_67" d="m748.54,503.77a77.62,77.62 0 0 0 -2.69,12l-23.65,2.73s-2.16,-2.73 -5.29,-10a18.1,18.1 0 0 1 -0.67,-1.72c-1.42,0.65 -2,2.12 -0.12,6.41c3.13,7.24 5.3,10 5.3,10l23.65,-2.74s1.76,-12.32 4.1,-14.67c1.2,-1.13 0.46,-1.72 -0.63,-2.01z"/>
   <path id="svg_68" d="m717.34,468.65s0.19,13.49 2.15,14.27l0,0c1,-2.23 1.65,-4.35 0.77,-4.7c-2,-0.78 -2.15,-14.28 -2.15,-14.28s-3.91,-16 -2.93,-20.34s-3.13,-14.66 -3.13,-14.66l-1.37,-12.32a33.9,33.9 0 0 1 -4.3,-23.28l0,-19s-5.48,-36.76 -6.26,-55.34c-0.5,-11.9 -0.36,-28.14 -0.2,-38.27c0,-1.83 0.06,-3.45 0.09,-4.82l-0.67,0.07s-0.11,3.76 -0.2,9.45c-0.16,10.13 -0.31,26.37 0.2,38.26c0.78,18.58 6.25,55.35 6.25,55.35l0,19a33.92,33.92 0 0 0 4.31,23.27l1.36,12.32s4.11,10.36 3.13,14.67s2.95,20.35 2.95,20.35z"/>
   <path id="svg_69" d="m786.96,513.23a22.87,22.87 0 0 1 -3.75,-9.29c-2.41,2.18 0.36,10.64 3,14c2.73,3.52 23.07,5.67 27,-0.79l0,-3.72c-5.33,5.23 -23.67,3.13 -26.25,-0.2z"/>
   <path id="svg_70" d="m816.68,491.13a39.51,39.51 0 0 0 -2.74,5.87l0,2.77c0.45,-1 1.08,-2.34 2,-3.92a12,12 0 0 0 0.86,-4.85s-0.09,0.09 -0.12,0.13z"/>
   <path id="svg_71" d="m788.16,494.22a38.66,38.66 0 0 0 1.93,-4.65s-3.33,0.78 -8.61,-5.48c-3.84,-4.55 -4.06,-13.15 -3.51,-18.77c-1,3.33 -2.55,17.21 2.73,23.47c3.45,4.09 6.06,5.17 7.46,5.43z"/>
   <path id="svg_72" d="m777.96,450.85a104.22,104.22 0 0 1 0.39,11.59a15.82,15.82 0 0 1 0.4,-1.81c1,-3.33 0,-14.47 0,-14.47s0.2,-7.83 -1.37,-10.37s-4.84,-17.02 -4.84,-17.02s0,-4.89 -2.74,-7.43s-4.5,-12.52 -4.5,-12.52a12.87,12.87 0 0 1 -2,-8.41c0.59,-4.89 -3.32,-10.17 -3.32,-10.17l-6.65,-21.12l-6.26,-15.84l-3.53,9.2s0,1.16 -0.12,3l2.86,-7.47l6.26,15.81l6.65,21.12s3.91,5.28 3.32,10.17a12.87,12.87 0 0 0 2,8.41s1.76,10 4.5,12.52s2.73,7.43 2.73,7.43s3.33,14.47 4.89,17s1.33,10.38 1.33,10.38z"/>
  </g>
  <path id="svg_73" fill="#ffcdd3" d="m794.38,91.05l-1.47,7.14l0.09,3.18l0.06,2.34l-8.16,0.84l-0.91,-1.69l0,0c-1.69,-3.06 -5.2,-9.28 -6.33,-10.24c-1.51,-1.26 -4.2,-21.12 -1,-19.94a8.53,8.53 0 0 1 4.54,4.11s16.07,1.84 13.18,14.26z"/>
  <path id="svg_74" opacity="0.1" d="m793.06,103.71l-8.16,0.84l-0.91,-1.69l0,0a7.19,7.19 0 0 1 9,-1.48l0.07,2.33z"/>
  <path id="svg_75" fill="#6c63ff" d="m795.12,107.58l-10.76,2.49l-0.23,-1.6l-0.61,-4.31s4.26,-5.68 10.42,-1.42l0.54,2.19l0.64,2.65z"/>
  <path id="svg_76" fill="#ffcdd3" d="m620.82,91.83l-11.49,6.16l-1,-2.16c-1.09,-2.29 -2.72,-5.74 -3.17,-7c-0.68,-1.9 -5.47,-4.3 -5.47,-4.3c-12,-11.49 2.3,-21.37 2.3,-21.37c7.58,-15.25 16,5.18 16,5.18s1.18,10.77 0.35,11.49s-0.83,3.67 -0.83,3.67a45.14,45.14 0 0 1 2.77,6.57c0.35,1.09 0.54,1.76 0.54,1.76z"/>
  <path id="svg_77" opacity="0.1" d="m620.82,91.83l-11.49,6.16l-1,-2.16c1.62,-1.36 7.37,-6 9.26,-5.81a13.84,13.84 0 0 0 2.72,0.07c0.32,1.07 0.51,1.74 0.51,1.74z"/>
  <path id="svg_78" fill="#f55455" d="m621.99,95.3l-12.91,6.36l-0.26,-2.77l-0.18,-1.92s7.48,-6.41 9.69,-6.16a11.75,11.75 0 0 0 3.37,0l0.15,2.32l0.14,2.17z"/>
  <path id="svg_79" fill="#ffcdd3" d="m763.09,138.48s-56.28,6.35 -45.76,2.93c7.32,-2.39 10.23,-7 10.84,-12.2c0.5,-4.33 -0.62,-9 -2.09,-13a56.68,56.68 0 0 0 -5,-10.17s43,-23.66 34.41,-2.15a34.68,34.68 0 0 0 -2.44,10.19a28.79,28.79 0 0 0 1.11,10.32a30.73,30.73 0 0 0 8.93,14.08z"/>
  <path id="svg_80" opacity="0.1" d="m755.46,103.86a34.68,34.68 0 0 0 -2.44,10.19c-4.05,3.41 -8.49,3.18 -14.2,3.18c-4.38,0 -9.24,1.06 -12.74,-1.05a56.68,56.68 0 0 0 -5,-10.17s42.99,-23.66 34.38,-2.15z"/>
  <circle id="svg_81" fill="#ffcdd3" r="23.27" cy="95.46" cx="738.06"/>
  <path id="svg_82" opacity="0.1" d="m763.09,138.48s-56.28,6.35 -45.76,2.93c7.32,-2.39 10.23,-7 10.84,-12.2c2.8,-3 8.43,-5.23 12,-6.39a16.84,16.84 0 0 1 10.2,-0.17a14.5,14.5 0 0 1 3.71,1.72a30.73,30.73 0 0 0 9.01,14.11z"/>
  <path id="svg_83" opacity="0.1" d="m795.12,107.58l-10.76,2.49l-0.23,-1.6a9.52,9.52 0 0 1 10.35,-3.54l0.64,2.65z"/>
  <path id="svg_84" opacity="0.1" d="m621.99,95.3l-12.91,6.36l-0.26,-2.77a94.16,94.16 0 0 1 13,-5.77l0.17,2.18z"/>
  <path id="svg_85" opacity="0.1" d="m785.35,280.29c-21.81,3.48 -52.81,7.92 -57.73,6.42c-4.09,-1.24 -17.13,-1.11 -28.48,-0.72c0.1,-5.68 0.2,-9.45 0.2,-9.45l84.48,-8.8s-0.08,3.9 1.53,12.55z"/>
  <path id="svg_86" fill="#3f3d56" d="m807.09,275.17s-71.77,12.32 -79.47,10s-47.25,0.19 -47.25,0.19c-17.8,11.93 -10.37,-5.67 -10.37,-5.67s-1.56,-9.19 0.59,-16.62a101.54,101.54 0 0 0 2.95,-16.64s-0.39,-11.74 1.76,-14.48s4.7,-22.29 4.7,-22.29s1.95,-13.3 1.76,-16.23s0.58,-11.15 0.58,-11.15l2.55,-13.69c-14.67,-1.95 -59.26,-29.33 -59.26,-29.33c-2.15,-9.19 -18.77,-30.7 -18.77,-30.7a22.63,22.63 0 0 0 -1.37,-5.28c-1.17,-3.13 16.43,-9.39 16.43,-9.39s13.1,16 15.84,20.34s12.12,12.32 12.12,12.32a9.43,9.43 0 0 1 4.3,0.56l0.23,0.07l0,0a34.86,34.86 0 0 1 8.75,5a17,17 0 0 1 11.93,4.5s8,-1.18 9.39,0.19s8.21,0 8.21,0s6.84,-14.47 11.34,-10.27s23.59,4 23.59,4c2.54,-3.38 8.73,-5.8 12.6,-7a16.91,16.91 0 0 1 10.2,-0.17a12.94,12.94 0 0 1 4,2l11.61,11.34s3.32,-4.31 2.93,-5.28s3.91,-1.76 3.91,-1.76s5.67,-1.76 7.82,-2.35s4.12,1.74 4.3,1.95c-0.07,-0.25 -1.54,-5 -1,-8.6s-2.35,-7 -2.35,-7c6.84,-16.82 22.29,-2.74 22.29,-2.74s1.76,9.19 0.2,12.71s1.56,10.95 1.17,12.91s0.79,5.28 0.79,9s-2,10.75 -3.13,13.88s-10.56,10.17 -10.56,10.17s-0.59,11.15 -4.7,17.6s-1.53,28.51 -1.53,28.51s3.91,17.21 8.8,22.69s12.12,36.71 12.12,36.71z"/>
  <path id="svg_87" opacity="0.1" d="m702.47,146.49s-2.15,-6.45 -4.11,-7a45.24,45.24 0 0 1 -5.67,-2.54l1.26,-2.41s7.34,2 8.52,4.17s0,7.78 0,7.78z"/>
  <path id="svg_88" opacity="0.1" d="m663.16,132.22c-0.39,2 -17.8,3.71 -17.8,3.71l8.8,-8.82l0,0l0.22,0.08l0,0a34.86,34.86 0 0 1 8.78,5.03z"/>
  <circle id="svg_89" fill="#575988" r="1.56" cy="105.38" cx="612.8"/>
  <circle id="svg_90" fill="#575988" r="1.56" cy="108.51" cx="614.8"/>
  <circle id="svg_91" fill="#575988" r="1.56" cy="111.4" cx="616.76"/>
  <circle id="svg_92" fill="#575988" r="1.56" cy="114.52" cx="618.81"/>
  <circle id="svg_93" fill="#575988" r="1.27" cy="114.35" cx="803.15"/>
  <circle id="svg_94" fill="#575988" r="1.27" cy="117.24" cx="803.35"/>
  <circle id="svg_95" fill="#575988" r="1.27" cy="120.12" cx="803.52"/>
  <path id="svg_96" opacity="0.1" d="m702.54,199.49c-0.19,-0.23 43.9,55.44 78.12,23.27c0.03,0.01 -54.04,7.34 -78.12,-23.27z"/>
  <path id="svg_97" opacity="0.1" d="m677.24,228.43s26.38,0.72 29.14,8.31l0,7.9a5.06,5.06 0 0 1 -4.91,0c-2.66,-1.44 -18.61,-9.54 -24.23,-5.64l0,-10.57z"/>
  <path id="svg_98" fill="#3f3d56" d="m677.73,228.43s25.23,0.69 27.87,7.93l0,7.52a4.84,4.84 0 0 1 -4.7,0c-2.54,-1.36 -17.79,-9.09 -23.17,-5.37l0,-10.08z"/>
  <path id="svg_99" opacity="0.1" d="m691.64,171.15a84.88,84.88 0 0 0 10.23,17.55a68.86,68.86 0 0 0 16,15.47s-25.79,-29.4 -26.23,-33.02z"/>
  <path id="svg_100" opacity="0.1" d="m683.01,140.5s4.4,19 15.74,25.45l-15.74,-25.45z"/>
  <path id="svg_101" opacity="0.1" d="m676.26,142.42c-0.11,-0.35 -3.91,15 14.62,23.53c0,0 -7.87,-2.67 -14.62,-23.53z"/>
  <path id="svg_102" opacity="0.1" d="m791.45,129.68c-0.29,0 9.14,6 11.71,8.8c0,0 -6.14,-9.2 -11.71,-8.8z"/>
  <path id="svg_103" fill="#2d293d" d="m731.77,116.55a3.67,3.67 0 0 0 4,3.63c7.09,0.44 14.48,0.75 21,-2a8,8 0 0 0 3.2,-2.12c1.16,-1.43 1.39,-3.37 1.86,-5.15c0.92,-3.48 2.88,-6.57 4.29,-9.88a33.1,33.1 0 0 0 2.31,-17.75a12,12 0 0 0 -1.78,-5.19c-1.88,-2.69 -5.31,-3.78 -7.8,-5.92s-4.09,-5.41 -7,-7c-2.62,-1.46 -5.83,-1.28 -8.78,-0.78a46.09,46.09 0 0 0 -16.38,6.15c-1.69,1 -3.54,2.23 -5.48,1.86c-1.7,-0.32 -2.94,-1.75 -4,-3.09a21.66,21.66 0 0 0 -1.67,10.15a4.36,4.36 0 0 1 -0.05,1.53a4.6,4.6 0 0 1 -1.09,1.61c-1.75,2 -2.84,5.25 -1.11,7.31c0.75,0.89 1.91,1.38 2.64,2.29c1.31,1.63 0.87,4 0.84,6.08a3.13,3.13 0 0 0 0.52,2.06a3,3 0 0 0 2.87,0.69a7.81,7.81 0 0 1 3.06,-0.29a5.13,5.13 0 0 1 2.66,2c3.23,4.21 4.51,8.79 5.89,13.81z"/>
  <g id="svg_104" opacity="0.1">
   <path id="svg_105" d="m760.8,114.29a8,8 0 0 1 -3.2,2.12c-6.56,2.73 -13.94,2.42 -21,2a4.92,4.92 0 0 1 -2.19,-0.49c-1.08,-0.63 -1.49,-1.95 -1.82,-3.15c-1.38,-5 -2.65,-9.59 -5.93,-13.76a5.14,5.14 0 0 0 -2.66,-2.05a8.2,8.2 0 0 0 -3.06,0.29a3,3 0 0 1 -2.87,-0.68a3.13,3.13 0 0 1 -0.52,-2.06c0,-2.1 0.47,-4.45 -0.84,-6.08c-0.73,-0.91 -1.89,-1.4 -2.64,-2.3a4.56,4.56 0 0 1 -0.45,-4.66c-1.25,2 -1.78,4.51 -0.33,6.23c0.75,0.89 1.91,1.38 2.64,2.29c1.31,1.64 0.87,4 0.84,6.08a3.11,3.11 0 0 0 0.51,2.06a3,3 0 0 0 2.88,0.69a7.81,7.81 0 0 1 3.06,-0.29a5.13,5.13 0 0 1 2.66,2c3.27,4.17 4.55,8.75 5.93,13.77a5,5 0 0 0 1.73,3.17a4.85,4.85 0 0 0 2.2,0.48c7.09,0.44 14.48,0.76 21,-2a7.92,7.92 0 0 0 3.2,-2.12a6.11,6.11 0 0 0 1,-1.88c0.01,0.13 -0.06,0.24 -0.14,0.34z"/>
   <path id="svg_106" d="m715.54,80.38a3.42,3.42 0 0 0 0.71,-1.18a4.36,4.36 0 0 0 0,-1.53a21.69,21.69 0 0 1 1.09,-8.42l-0.13,-0.15a21.5,21.5 0 0 0 -1.67,10.14a7.23,7.23 0 0 1 0,1.14z"/>
  </g>
  <path id="svg_107" opacity="0.1" d="m727.62,130.65s29.07,3.86 31.68,-0.51"/>
  <path id="svg_108" opacity="0.1" d="m784.13,118.62s16.16,0 19.71,6.08"/>
  <path id="svg_109" fill="#3f3d56" d="m874.54,658.77a25.63,25.63 0 0 1 -17.45,6.52c-1.64,0 -3.91,0.31 -3.92,1.95a2.75,2.75 0 0 0 0.48,1.34a16.05,16.05 0 0 0 9,7.07c3.5,1.06 7.24,0.88 10.89,0.69l10.65,-0.55c2,-0.11 4,-0.21 6,-0.46s4.18,-0.66 6.27,-1a82,82 0 0 1 15.51,-0.72c1.38,0.05 3,0 3.82,-1s0.4,-2.91 0.09,-4.41c-0.64,-3.09 0,-6.33 -0.59,-9.43c-1,-5.44 -5.71,-9.61 -10.87,-11.58c-4.8,-1.82 -13.3,-3.91 -17.84,-0.87c-4.79,3.19 -7.72,8.52 -12.04,12.45z"/>
  <path id="svg_110" fill="#464353" d="m885.12,476.51c0.94,4.47 5.27,7.89 5.39,12.45c0.11,3.66 -2.5,6.73 -4.38,9.86a65.78,65.78 0 0 0 -4.47,10.12a154.59,154.59 0 0 1 -13.12,26.1c-2.5,4 -5.3,8.27 -4.73,12.92a19.36,19.36 0 0 0 2.27,6.18l7.5,14.9a43.15,43.15 0 0 1 3.83,9.41c0.65,2.83 0.71,5.76 1.09,8.64c1.18,9.14 5.47,18.34 2.93,27.2c-0.22,0.76 -1,1.68 -1.61,1.15c2.48,4.63 4.47,9.29 4.28,14.54c-0.1,2.75 -0.94,5.62 0.07,8.18c0.43,1.07 1.18,2.07 1.17,3.22c0,0.76 -0.35,1.47 -0.43,2.21c-0.21,2.11 1.73,3.87 3.74,4.54s4.2,0.62 6.23,1.23c3.9,1.17 6.69,4.53 10,6.86a21.29,21.29 0 0 0 11.52,3.75a2.9,2.9 0 0 0 1.7,-0.34a2.75,2.75 0 0 0 0.94,-2.06a11.44,11.44 0 0 0 -4.12,-9.94a4.5,4.5 0 0 1 -1.53,-1.6a3.86,3.86 0 0 1 -0.14,-1.79a134.78,134.78 0 0 0 -0.44,-24.6a37.36,37.36 0 0 1 -0.39,-7.83c0.21,-2.18 0.87,-4.34 0.63,-6.51s-1.35,-4.15 -2,-6.24c-1.16,-3.72 -0.84,-7.72 -1,-11.61c-0.2,-6.76 -1.75,-13.4 -3.29,-20c-0.61,-2.59 -1.28,-5.3 -3.11,-7.22c-1.56,-1.63 -4.08,-3.19 -3.49,-5.36a6.35,6.35 0 0 1 1.43,-2.13a8.55,8.55 0 0 0 1.78,-6.52a2.93,2.93 0 0 0 3.37,-1.58c12.18,-5.75 22,-17.25 26.38,-30a9.9,9.9 0 0 1 1.18,-2.68c1.13,-1.58 3.09,-2.26 4.83,-3.13c5.46,-2.75 9.23,-7.9 12.69,-12.94c2,-2.92 4,-5.94 4.9,-9.38a30.74,30.74 0 0 0 0.67,-6.77l0.31,-11.75a6.35,6.35 0 0 0 -0.22,-2.3a5.75,5.75 0 0 0 -1.27,-1.86a22.59,22.59 0 0 0 -12.46,-6.72c-3.2,-0.57 -6.47,-0.46 -9.71,-0.73c-6.28,-0.52 -12.48,-2.47 -18.76,-2c-9.87,0.73 -18.66,7.57 -23.31,16.31c-1.63,3.08 -3.35,5.76 -6.85,5.82z"/>
  <path id="svg_111" fill="#f55455" d="m830.32,400.11a13.13,13.13 0 0 1 -0.72,5.35c-0.77,1.64 -2.7,2.92 -4.39,2.25c0.51,-1.15 -0.84,-2.46 -2.1,-2.32a3.93,3.93 0 0 0 -2.77,2.38a8.85,8.85 0 0 0 -0.8,5.43c0.4,2.3 1.73,4.51 1.38,6.82c-0.28,1.92 -1.69,3.83 -0.94,5.61a9.09,9.09 0 0 0 1.81,2.17a6.12,6.12 0 0 1 -0.65,8.4l18.92,0.38c-0.69,3.16 0.73,6.39 2.35,9.2a58,58 0 0 0 43.24,28.23a3.76,3.76 0 0 0 -0.91,5.75c1.54,1.53 4.15,1.34 6.08,0.35s3.44,-2.63 5.2,-3.9a16,16 0 0 1 10.69,-2.88c2.37,0.23 4.67,1 7.05,1.12c7,0.37 13,-4.67 19.74,-6.73c4.91,-1.51 10.48,-1.51 14.6,-4.58c1.78,-1.32 3.24,-3.49 2.72,-5.63a9.41,9.41 0 0 0 -2,-3.31c-2.37,-3.07 -3.77,-6.76 -5.47,-10.25a61.31,61.31 0 0 0 -13.67,-18.32a122.31,122.31 0 0 0 -13.56,-10.28a23.12,23.12 0 0 0 -3.66,-2.21c-1.66,-0.73 -3.5,-1.08 -5,-2c-2.22,-1.4 -3.5,-3.87 -5.21,-5.86c-3.75,-4.38 -9.51,-6.39 -14.13,-9.83c-3.1,-2.31 -5.84,-5.35 -9.54,-6.46c-1.8,-0.55 -3.71,-0.59 -5.51,-1.13c-4.09,-1.24 -7.07,-4.87 -11.08,-6.34c-3.17,-1.16 -6.67,-0.86 -10,-1.27a23.41,23.41 0 0 1 -10.45,-3.98a12.4,12.4 0 0 0 -3.33,-1.94c-5.07,-1.54 -5.48,7.9 -6,11.17c-0.67,4.86 -1.89,9.69 -1.89,14.61z"/>
  <path id="svg_112" fill="#fbbebe" d="m835.26,431.77c0.85,9.22 -6.11,18.15 -4.08,27.18c0.43,1.92 1.26,3.75 1.56,5.7c0.85,5.35 -2.35,10.42 -5.4,14.9l-26.2,38.45a24.18,24.18 0 0 1 -3.74,4.62c-5,4.45 -12.52,4 -19.1,5.32a33,33 0 0 0 -12.8,5.66a0.83,0.83 0 0 0 -0.16,1.15a11,11 0 0 0 9.51,4.47c0.69,0.9 0,2.24 -0.95,2.89c-1.4,1 -3.34,1.23 -3.62,3.62a4,4 0 0 0 0.48,2.4a7.47,7.47 0 0 0 4.58,3.18c9.07,2.78 18.87,-2.1 25.66,-8.73s11.66,-15 18.32,-21.74c3.69,-3.74 7.88,-6.93 11.68,-10.55c7.58,-7.23 13.48,-16 19.16,-24.79c1.71,-2.65 3.44,-5.37 4.15,-8.44s0.38,-6.18 1.19,-9.15c1.06,-3.89 3.91,-7 6.28,-10.26c4.65,-6.4 7.76,-14.23 7.14,-22.12s-5.5,-15.67 -12.94,-18.35a11.63,11.63 0 0 0 -7.25,-0.44c-3.05,0.94 -5.3,3.46 -7.38,5.88l-5,5.74a13.39,13.39 0 0 0 -2.81,4.41a4.61,4.61 0 0 0 1,4.9"/>
  <path id="svg_113" fill="#f55455" d="m848.54,393.95c-3.44,0.2 -7.23,0.54 -9.66,3a13.75,13.75 0 0 0 -2.44,3.82c-2.36,4.81 -4.66,9.84 -4.83,15.2c-0.14,4.28 1.1,8.47 1.75,12.7c0.54,3.52 -0.83,7.11 -1.09,10.67c4.27,-1.31 9.91,-3.09 13.78,-5.3c2.64,-1.51 5.19,-3.23 8.07,-4.19c4.11,-1.37 11,1 14.91,2.9c0.21,-2.74 -1.85,-7.52 -1.63,-10.27a11.47,11.47 0 0 1 0.61,-3.4a20.62,20.62 0 0 1 2.07,-3.29a13.46,13.46 0 0 0 -1.21,-15.77c-3.47,-3.9 -8.9,-5.36 -14.08,-6a60.9,60.9 0 0 0 -9.83,-0.34"/>
 </g>
</svg>