<svg width="1099" height="797.68034" xmlns="http://www.w3.org/2000/svg" data-name="Layer 1">
 <title>transfer money</title>

 <g>
  <title>Layer 1</title>
  <circle id="svg_1" fill="#f2f2f2" r="373.00009" cy="373.0001" cx="472.0001"/>
  <ellipse id="svg_2" fill="#f2f2f2" ry="23.68" rx="148" cy="774.00034" cx="148"/>
  <ellipse id="svg_3" fill="#f2f2f2" ry="36.64" rx="229" cy="736.96923" cx="870"/>
  <path id="svg_4" fill="#2f2e41" d="m819.12034,384.7847s1.94963,6.49877 -9.09828,12.34766s-14.2973,27.94472 -1.29975,34.44349s16.8968,14.94718 10.398,20.79607s-18.19656,21.446 -2.59951,25.34521s17.54668,11.69779 12.99754,14.94717s10.398,-5.84889 10.398,-5.84889s2.59951,15.597 16.24693,11.69779s51.99017,-77.98526 32.49385,-88.38329s-69.53678,-25.34521 -69.53678,-25.34521z"/>
  <path id="svg_5" fill="#ffb9b9" d="m842.67509,447.53691s6.74118,23.59415 -5.05589,25.27945a46.05232,46.05232 0 0 0 -20.22356,8.42648l21.90885,28.65l40.44712,0l25.27946,-25.27945s-33.70594,-25.27945 -26.96475,-40.44712s-35.39123,3.37064 -35.39123,3.37064z"/>
  <path id="svg_6" opacity="0.1" d="m842.67509,447.53691s6.74118,23.59415 -5.05589,25.27945a46.05232,46.05232 0 0 0 -20.22356,8.42648l21.90885,28.65l40.44712,0l25.27946,-25.27945s-33.70594,-25.27945 -26.96475,-40.44712s-35.39123,3.37064 -35.39123,3.37064z"/>
  <polygon id="svg_7" fill="#ffb9b9" points="852.787 740.779 891.549 754.261 918.513 755.946 916.828 732.352 861.213 715.904 852.787 740.779"/>
  <path id="svg_8" fill="#f55455" d="m902.50312,735.72265s0,23.59415 3.37059,23.59415s48.87361,-5.05589 62.356,0s33.70594,-13.48237 23.59416,-23.59415s-26.60567,-25.27945 -36.897,-21.90886s-52.42374,11.79708 -52.42374,11.79708l-0.00001,10.11178z"/>
  <path id="svg_9" fill="#f55455" d="m778.63381,713.81379s-20.22356,40.44712 -6.74119,43.81772s28.65005,-1.6853 30.33534,-3.3706s25.27946,-8.42648 28.65,-5.05589s3.37059,-13.48237 3.37059,-13.48237l-55.61474,-21.90886z"/>
  <path id="svg_10" fill="#2f2e41" d="m795.48678,658.199s-32.02064,43.81771 -8.42649,55.61479s136.509,11.79708 144.93552,0s11.79708,-48.8736 0,-52.2442s-136.50903,-3.37059 -136.50903,-3.37059z"/>
  <path id="svg_11" opacity="0.2" d="m795.48678,658.199s-32.02064,43.81771 -8.42649,55.61479s136.509,11.79708 144.93552,0s11.79708,-48.8736 0,-52.2442s-136.50903,-3.37059 -136.50903,-3.37059z"/>
  <circle id="svg_12" fill="#ffb9b9" r="38.76183" cy="420.57216" cx="856.15746"/>
  <path id="svg_13" fill="#f55455" d="m795.48678,481.24284l33.70593,-6.74119s8.42649,26.96475 35.39123,21.90886s33.70594,-21.90886 33.70594,-21.90886s20.22356,8.42649 21.90886,8.42649s23.59415,8.42648 23.59415,13.48237s-25.27945,55.61479 -25.27945,55.61479l3.37059,91.006l-124.712,-3.3706l8.42649,-89.32072l-10.11174,-69.09714z"/>
  <path id="svg_14" fill="#ffb9b9" d="m776.94851,525.06056s-10.11178,89.32072 -3.37059,96.06191s33.70593,25.27945 33.70593,25.27945l0,-20.22356l-13.48237,-25.27945l13.48237,-58.98539l-30.33534,-16.85296z"/>
  <path id="svg_15" fill="#ffb9b9" d="m947.37673,522.53261s-5.89854,91.84867 -5.89854,95.21927s-15.16767,15.16767 -20.22356,15.16767s-8.42649,-8.42649 -8.42649,-8.42649l11.79708,-13.48237l-8.42648,-69.09717l31.17799,-19.38091z"/>
  <path id="svg_16" fill="#2f2e41" d="m935.36641,651.45781s75.83835,-42.13242 77.52365,0s-38.76183,58.98539 -38.76183,58.98539s-104.4884,31.332 -108.70164,19.87922s-12.63972,-29.991 -5.89854,-31.6763s15.16767,-5.05589 18.53827,-1.6853s45.503,-25.27945 45.503,-25.27945l11.79709,-20.22356z"/>
  <path id="svg_17" opacity="0.2" stroke-width="2" stroke-miterlimit="10" stroke="#000" fill="none" d="m970.75764,646.40192s-15.16767,6.74119 -20.22356,11.79708s-26.96475,13.48237 -26.96475,13.48237"/>
  <path id="svg_18" fill="#f55455" d="m805.59856,484.61343l-10.11178,-3.37059s-37.07653,38.76183 -25.27945,48.87361s18.53826,13.48237 21.90885,16.853s20.22356,5.05589 20.22356,5.05589l-6.74118,-67.41191z"/>
  <path id="svg_19" fill="#f55455" d="m928.62522,493.03992l15.16767,3.37059s11.79708,25.27945 15.16767,28.65s-5.05589,1.68529 -10.11178,8.42648s-10.11178,18.53826 -20.22356,18.53826s-23.59415,-16.853 -23.59415,-16.853l23.59415,-42.13233z"/>
  <path id="svg_20" fill="#2f2e41" d="m798.85737,666.62548s-64.04128,-45.503 -85.95013,-11.79707s94.37661,79.20894 111.22958,85.95013s32.02064,13.48237 32.02064,13.48237s15.16767,-37.07653 15.16767,-43.81771s-11.79708,-6.74119 -15.16767,-6.74119s-18.53826,-3.37059 -21.90886,-8.42648s-35.39123,-28.65005 -35.39123,-28.65005z"/>
  <path id="svg_21" opacity="0.2" stroke-width="2" stroke-miterlimit="10" stroke="#000" fill="none" d="m763.46614,654.82841s16.853,13.48237 32.02064,16.853s20.22356,11.79708 20.22356,11.79708"/>
  <path id="svg_22" fill="#575a89" d="m787.232,591.46192l1.34634,71.35617a8.93275,8.93275 0 0 0 9.03153,8.76368l132.78977,-1.492a8.93275,8.93275 0 0 0 8.81757,-8.4177l4.03063,-69.86415a8.93277,8.93277 0 0 0 -8.91793,-9.44726l-138.16673,0a8.93276,8.93276 0 0 0 -8.93118,9.10126z"/>
  <path id="svg_23" fill="#2f2e41" d="m858.22836,371.87981s2.1598,7.19934 -10.07907,13.67875s-15.83855,30.95716 -1.43987,38.1565s18.71828,16.55847 11.51894,23.03788s-20.15815,23.75782 -2.87973,28.07742s19.43821,12.95881 14.39867,16.55848s11.519,-6.4794 11.519,-6.4794s2.87973,17.27841 17.99834,12.95881s30.20328,-82.83994 13.35031,-103.0635c-15.67032,-18.80433 -54.38659,-22.92494 -54.38659,-22.92494z"/>
  <path id="svg_24" fill="#2f2e41" d="m853.62952,364.46941c0.00329,-10.5474 31.5587,-2.9686 45.088,11.75792c9.3687,10.1979 23.59878,25.54036 11.67441,36.35523s20.43938,24.99208 29.11908,29.29045s25.81718,17.443 10.34329,26.26121s-15.22443,17.71981 -9.401,19.82742s-12.83934,-3.13373 -12.83934,-3.13373s1.8855,17.415 -13.83788,17.3316s-60.83248,-86.49446 -50.05628,-110.513c10.01996,-22.33291 -10.09028,-27.1771 -10.09028,-27.1771z"/>
  <path id="svg_25" fill="#2f2e41" d="m860.46451,362.15799c-42.19784,-2.541 -46.43289,29.22289 -46.43289,29.22289c0.29172,18.38181 29.48282,9.42517 37.59043,12.16542c9.78139,-7.0364 28.63565,-20.35008 42.11967,-29.85137a63.77377,63.77377 0 0 0 -33.27721,-11.53694z"/>
  <path id="svg_26" stroke-width="2" stroke-miterlimit="10" stroke="#3f3d56" fill="none" d="m848.44244,564.84859s-37.85205,-177.39942 -274.77301,-306.08832"/>
  <polygon id="svg_27" fill="#3f3d56" points="583.431 254.891 583.905 256.836 574.322 259.16 577.341 268.549 575.435 269.16 571.76 257.724 583.431 254.891"/>
  <path id="svg_28" fill="#6c63ff" d="m68.47332,746.11149c0,22.46856 -13.35644,30.31375 -29.83388,30.31375q-0.57256,0 -1.14331,-0.01273c-0.76345,-0.01636 -1.51962,-0.05271 -2.26669,-0.10361c-14.87057,-1.05244 -26.42387,-9.30116 -26.42387,-30.19741c0,-21.62515 27.63446,-48.91242 29.71026,-50.93189l0.00364,-0.00363c0.08,-0.07816 0.12,-0.11634 0.12,-0.11634s29.83385,28.5833 29.83385,51.05186z"/>
  <path id="svg_29" fill="#3f3d56" d="m37.55246,772.98796l10.91163,-15.24679l-10.9389,16.9209l-0.02906,1.75044c-0.76345,-0.01636 -1.51962,-0.05271 -2.26669,-0.10361l1.17607,-22.47946l-0.0091,-0.17451l0.02,-0.03271l0.11088,-2.12307l-10.9662,-16.96276l11.00071,15.37045l0.02548,0.45079l0.88883,-16.98456l-9.38839,-17.52807l9.50291,14.547l0.9252,-35.21244l0.00364,-0.12l0,0.11634l-0.15447,27.76727l9.34661,-11.008l-9.38481,13.4l-0.2472,15.20685l8.72677,-14.59429l-8.76312,16.83189l-0.13814,8.4541l12.66934,-20.31277l-12.7166,23.2629l-0.30539,18.80411z"/>
  <path id="svg_30" fill="#2f2e41" d="m210.77324,740.29048l6.3818,-4.74121s4.22435,23.59659 -0.48949,27.132s-22.39076,9.42769 -22.39076,16.49846s-40.06768,16.49845 -41.24614,5.8923s3.53538,-16.49845 3.53538,-16.49845s18.85538,-18.85538 21.2123,-22.39076s8.24923,-10.60615 8.24923,-10.60615l24.74768,4.71381z"/>
  <path id="svg_31" fill="#2f2e41" d="m116.49636,446.85368s0.17679,1.03705 0.48306,2.93435c0.283,1.6852 0.6718,4.06571 1.14322,7.00007c4.94962,30.204 19.38577,119.11886 18.40755,122.05322c-1.17846,3.53538 -9.42768,16.49845 0,20.03384c0.90744,0.34172 1.88551,1.44948 2.93436,3.19358a68.49432,68.49432 0 0 1 4.98487,11.76109c5.62128,16.30986 11.63155,42.4128 15.10795,60.49035c1.52026,7.94289 2.55717,14.33013 2.86358,17.67692a9.61182,9.61182 0 0 1 0.03539,2.3334c-1.17846,4.71385 7.07076,21.2123 10.60615,25.92614s9.42769,9.42769 8.24922,14.14154s29.46153,17.67691 32.99691,9.42769s3.53539,-12.96308 4.71385,-15.32s2.35692,-18.85537 -3.53538,-21.2123s-2.35693,-43.60306 -8.24923,-51.85228c-1.96794,-2.74584 -4.97307,-12.04391 -8.11962,-23.2275c-1.23729,-4.38384 -2.48653,-9.05057 -3.71218,-13.729c-4.97307,-19.17358 -9.3805,-38.465 -9.3805,-38.465l1.17844,-137.87996l-64.81536,-8.24922l-1.66153,3.665l-3.31154,7.27109l-0.91921,2.02698z"/>
  <path id="svg_32" fill="#2f2e41" d="m112.961,673.11817s-9.42769,-9.42769 -14.14153,0s-9.42769,45.96 -17.67692,54.20921s-18.85537,49.49537 -7.07076,51.85229s24.74768,-3.53539 25.92614,-10.60615s25.92607,-43.60303 25.92607,-47.13841s-16.49845,-16.49846 -16.49845,-16.49846l3.53545,-31.81848z"/>
  <path id="svg_33" fill="#2f2e41" d="m257.91168,382.03832s-15.32,137.87994 -18.85537,150.843s-22.39076,62.45843 -28.28307,70.70766s-43.60306,75.42151 -48.3169,78.95689s-14.14154,12.96307 -14.14154,12.96307s-17.67691,17.67692 -20.03383,21.2123s-22.39076,-7.07076 -23.56922,-14.14153s1.17846,-18.85538 2.35692,-23.56922s-2.35692,-11.78461 1.17846,-15.32s21.2123,-21.2123 21.2123,-29.46152s30.64,-56.56613 42.4246,-67.17228s9.42768,-28.28307 9.42768,-28.28307l0,-71.8861l-64.81535,-20.03384s3.53538,-56.56613 11.78461,-56.56613s116.66764,-18.85538 129.63071,-8.24923z"/>
  <circle id="svg_34" fill="#9f616a" r="38.88922" cy="146.34611" cx="162.45634"/>
  <path id="svg_35" fill="#9f616a" d="m175.41941,176.98609s4.71384,17.67692 10.60615,22.39077s-15.32,24.74768 -15.32,24.74768l-40.06767,2.35692l-7.07077,-22.39076s12.96307,-25.92614 9.42769,-42.4246s42.4246,15.31999 42.4246,15.31999z"/>
  <path id="svg_36" fill="#f55455" d="m191.91786,197.01993s-10.60615,1.17846 -12.96307,4.71385s-18.85537,14.14153 -31.81845,11.78461s-21.2123,-5.89231 -23.56922,-4.71385s-7.07076,25.92615 -7.07076,25.92615l12.96307,37.71075l-2.35692,103.70457l-3.53539,28.28307s-7.07076,-9.42769 21.2123,-3.53538s64.81536,-4.71385 76.6,-5.89231s31.81845,-4.71384 32.99691,-11.78461s-3.53538,-32.99691 -3.53538,-32.99691l-18.85538,-78.95689l-11.78461,-42.4246l-28.2831,-31.81845z"/>
  <path id="svg_37" fill="#d0cde1" d="m180.77092,191.70106s9.96848,-5.28728 13.50387,-0.57343s48.3169,11.78461 48.3169,15.32s9.42769,98.99073 7.07077,107.24s4.71384,17.67691 4.71384,17.67691l8.24923,35.35384s22.39076,67.17228 12.96307,69.5292s-17.67692,0 -21.2123,0s-2.35692,-44.78152 -11.78461,-56.56613s-22.39076,-41.24614 -24.74768,-47.13844s-31.81845,-87.20612 -30.64,-96.63381s-6.43309,-44.20814 -6.43309,-44.20814z"/>
  <path id="svg_38" fill="#d0cde1" d="m131.81635,197.01993s-9.42769,0 -10.60615,2.35693s-12.96307,17.67691 -17.67692,21.21231s-21.21228,18.85536 -21.21228,22.39074s34.17537,29.46153 34.17537,29.46153s14.14153,69.5292 7.07076,93.09842s-17.67691,80.13536 -12.96307,83.67074s15.32,4.71384 15.32,0s7.07077,-55.38767 12.96308,-65.99382s23.56922,-77.77843 16.49845,-96.63381s-23.56924,-89.56304 -23.56924,-89.56304z"/>
  <path id="svg_39" fill="#9f616a" d="m287.37321,313.68758s1.17846,36.53229 -11.78461,55.38767s-21.2123,40.06767 -21.2123,40.06767s-21.2123,-5.8923 -24.74768,-12.96307s-25.92615,-1.17846 -25.92615,-3.53538s27.10461,-14.14153 29.46153,-16.49846s10.60615,-2.35692 15.32,-7.07076s5.89231,-15.32 5.89231,-15.32l4.71384,-30.64l28.28306,-9.42767z"/>
  <path id="svg_40" fill="#2f2e41" d="m189.24117,122.36783c2.9918,-0.27176 6.07737,-0.57079 8.72149,-1.99675c5.92458,-3.19509 7.49563,-12.29387 2.98552,-17.29068a22.344,22.344 0 0 0 -4.14313,-3.33142l-8.95783,-6.09718c-3.96186,-2.69664 -8.01737,-5.43748 -12.6382,-6.70872c-4.17944,-1.14979 -8.59364,-1.03164 -12.92,-0.76272c-8.39862,0.522 -16.84923,1.60028 -24.74865,4.5s-15.2682,7.75089 -20.05246,14.67333c-7.58453,10.9742 -7.68878,25.77486 -3.51145,38.444s12.11238,23.7014 19.9311,34.51l4.05692,-19.7948c0.36135,-1.76309 0.82864,-3.69543 2.295,-4.7389c3.64454,-2.59347 8.10267,2.73144 12.57565,2.69692c2.87408,-0.02218 5.28706,-2.38612 6.37625,-5.04591s1.1609,-5.60529 1.4129,-8.46838c0.53374,-6.06421 2.65335,-14.50206 8.39619,-17.84651c5.35141,-3.11646 14.20553,-2.19594 20.2207,-2.74228z"/>
  <path id="svg_41" opacity="0.1" d="m187.0596,447.8048s-3.98019,115.12729 -6.33712,118.66268s0,-119.02457 0,-119.02457l6.33712,0.36189z"/>
  <path id="svg_42" fill="#d0cde1" d="m233.164,206.44762l9.42769,0s40.06768,54.20921 35.35383,57.74459s0,12.96308 0,12.96308l9.42769,17.67691s11.78461,10.60615 8.24923,12.96307s-8.24923,11.78461 -8.24923,11.78461s-23.56922,-3.53538 -30.64,10.60615l-15.28441,-19.29563l-8.2848,-104.44278z"/>
  <rect id="svg_43" transform="rotate(-22.4379 -148.088 80.5685)" fill="#2f2e41" height="65.22365" width="35" y="359.82293" x="117.67988"/>
  <ellipse transform="rotate(-22.4379 135.299 383.504)" id="svg_44" fill="#f55455" ry="6.4305" rx="7" cy="383.5045" cx="135.29863"/>
  <path id="svg_45" fill="#9f616a" d="m209.59478,300.72451s-84.8492,70.70766 -98.99073,48.3169s15.32,-41.24614 15.32,-41.24614s25.92615,1.17846 55.38767,-17.67691l29.46153,-12.96307s26.89605,-38.399 36.06141,-23.777s-15.6451,40.07038 -37.23988,47.34622z"/>
  <path id="svg_46" fill="#d0cde1" d="m95.28406,238.26607l-12.96306,4.71384l0,35.35384l-4.71385,7.07076s1.17846,14.14154 4.71385,17.67692s10.60614,2.35692 8.24922,10.60615a44.667,44.667 0 0 0 -1.17846,16.49845s21.2123,27.10461 22.39076,23.56922s17.67692,-47.13844 20.03384,-47.13844s-23.56922,-68.35074 -23.56922,-68.35074l-12.96308,0z"/>
  <path id="svg_47" fill="#2f2e41" d="m250.25169,416.80292s12.185,-11.78461 6.09251,-12.37384s-27.30481,-12.37384 -30.8402,-6.48154s24.74769,18.85538 24.74769,18.85538z"/>
  <ellipse id="svg_48" fill="#57b894" ry="9" rx="17" cy="183.00034" cx="482"/>
  <path id="svg_49" stroke-width="2" stroke-miterlimit="10" stroke="#3f3d56" fill="none" d="m547,213.00034q-57.5,-21.71653 -115,0l0,-47a199.03781,199.03781 0 0 1 115,0l0,47z"/>
  <path id="svg_50" stroke-width="2" stroke-miterlimit="10" stroke="#3f3d56" fill="none" d="m531,203.28048q-41.5,-15.67368 -83,0l0,-33.92174a143.65344,143.65344 0 0 1 83,0l0,33.92174z"/>
  <ellipse id="svg_51" stroke-width="2" stroke-miterlimit="10" stroke="#3f3d56" fill="none" ry="9" rx="17" cy="179.00034" cx="488"/>
  <ellipse id="svg_52" transform="rotate(-11.5355 -97.6616 63.3382)" fill="#57b894" ry="9" rx="17" cy="354.04377" cx="445.53857"/>
  <path id="svg_53" stroke-width="2" stroke-miterlimit="10" stroke="#3f3d56" fill="none" d="m562.3865,255.94143q-60.68128,-9.77937 -112.67713,22.99705l-9.39879,-46.05065a199.03782,199.03782 0 0 1 112.67713,-22.99705l9.39879,46.05065z"/>
  <path id="svg_54" stroke-width="2" stroke-miterlimit="10" stroke="#3f3d56" fill="none" d="m544.766,249.61749q-43.79606,-7.05816 -81.32349,16.59787l-6.78351,-33.23656a143.6534,143.6534 0 0 1 81.32349,-16.59787l6.78351,33.23656z"/>
  <ellipse id="svg_55" transform="rotate(-11.5355 -96.5354 64.2505)" stroke-width="2" stroke-miterlimit="10" stroke="#3f3d56" fill="none" ry="9" rx="17" cy="349.83698" cx="451.74375"/>
  <ellipse id="svg_56" transform="rotate(-86.0194 105.902 809.794)" fill="#57b894" ry="17" rx="9" cy="1156.43928" cx="645.57723"/>
  <path id="svg_57" stroke-width="2" stroke-miterlimit="10" stroke="#3f3d56" fill="none" d="m551.93539,329.92499q-55.85373,-25.65573 -114.72258,-7.98316l3.26268,-46.88662a199.03794,199.03794 0 0 1 114.72258,7.98316l-3.26268,46.88662z"/>
  <path id="svg_58" stroke-width="2" stroke-miterlimit="10" stroke="#3f3d56" fill="none" d="m536.64873,319.11788q-40.31182,-18.51671 -82.79973,-5.76176l2.35481,-33.83991a143.6534,143.6534 0 0 1 82.79977,5.76176l-2.35485,33.83991z"/>
  <ellipse id="svg_59" transform="rotate(-86.0194 115.296 812.717)" stroke-width="2" stroke-miterlimit="10" stroke="#3f3d56" fill="none" ry="17" rx="9" cy="1155.7878" cx="661.23406"/>
  <path id="svg_60" stroke-width="2" stroke-miterlimit="10" stroke="#3f3d56" fill="none" d="m414.92181,214.09154s-73.49612,-10.05473 -125.98187,20.70386"/>
  <polygon id="svg_61" fill="#3f3d56" points="290.708 224.459 292.617 225.063 289.633 234.462 299.227 236.751 298.76 238.698 287.077 235.907 290.708 224.459"/>
 </g>
</svg>