<svg width="823.5" height="539.23257" xmlns="http://www.w3.org/2000/svg" data-name="Layer 1">

 <g>
  <title>Layer 1</title>
  <ellipse id="svg_1" fill="#e6e6e6" ry="9" rx="118" cy="530.23257" cx="118"/>
  <path id="svg_2" fill="#9f616a" d="m156.218,135.46083l-47.07583,-12.83886q18.85578,-17.793 16.40521,-33.5237l30.67062,0l0,46.36256z"/>
  <polygon id="svg_3" fill="#2f2e41" points="161.211 496.376 146.005 498.515 127.687 330.184 98.443 497.802 82.751 498.515 82.751 285.961 179.756 285.961 161.211 496.376"/>
  <path id="svg_4" fill="#2f2e41" d="m90.64831,530.30937l0,0a10.69525,10.69525 0 0 0 10.60707,-7.816l1.11072,-16.57479l-2.23906,-11.75506c-5.90752,-4.85489 -11.87976,-4.75376 -17.91246,0l-1.92358,24.62194a10.69524,10.69524 0 0 0 10.35731,11.52391z"/>
  <path id="svg_5" fill="#2f2e41" d="m153.41608,530.30937l0,0a10.69525,10.69525 0 0 0 10.60707,-7.816l1.11072,-16.57479l-2.23905,-11.75506c-5.90753,-4.85489 -11.87976,-4.75376 -17.91247,0l-1.92359,24.62195a10.69525,10.69525 0 0 0 10.35732,11.5239z"/>
  <circle id="svg_6" fill="#9f616a" r="27.10427" cy="84.10538" cx="149.79858"/>
  <path id="svg_7" fill="#e6e6e6" d="m184.03555,289.52718l-103.42418,0c13.40488,-62.12418 13.36732,-112.15823 2.68969,-152.62266a10.81293,10.81293 0 0 1 6.57562,-12.85324l27.82474,-10.70182c8.35359,10.788 20.1417,15.5 38.51659,8.55924l14.58078,2.99093a14.98248,14.98248 0 0 1 11.957,15.66542c-1.07315,15.82559 -0.65,31.77226 -1.57328,45.538c-2.85916,42.62824 -4.09396,75.86033 2.85304,103.42413z"/>
  <path id="svg_8" fill="#2f2e41" d="m135.53318,48.44188s15.69194,-17.83176 34.237,-0.71327l4.99289,1.42654l-3.56635,2.85308s18.545,8.55924 17.11849,26.391c0,0 -2.85308,-0.71327 -4.27962,0s-2.13982,8.55924 -2.13982,8.55924s-2.13981,-5.70616 -2.85308,-6.41943s-10.699,7.846 -27.10426,-4.99289c0,0 -4.99289,12.83886 -10.699,11.41232s-13.55214,-0.71327 -17.11849,8.55925c-0.00009,-0.00001 -19.25838,-41.36968 11.41224,-47.07584z"/>
  <path id="svg_9" fill="#9f616a" d="m189.02844,273.83529l-9.15617,12.272a12.02693,12.02693 0 0 0 2.59424,16.93944l0,0a12.02693,12.02693 0 0 0 18.92117,-7.8472l2.61941,-16.37132l4.99291,-70.61382l-3.56635,-35.66351l-22.82465,8.55924l6.41944,30.67062l0,62.05455z"/>
  <path id="svg_10" fill="#e6e6e6" d="m179.75592,189.66936l27.81754,-12.83886l-1.42654,-10.10582a41.48828,41.48828 0 0 0 -26.4891,-38.68205l-8.46114,-3.28085l8.55924,64.90758z"/>
  <path id="svg_11" fill="#9f616a" d="m78.47156,270.98216l9.15617,12.272a12.02693,12.02693 0 0 1 -2.59424,16.93944l0,0a12.02693,12.02693 0 0 1 -18.92117,-7.8472l-2.61941,-16.37132l-4.99291,-70.61379l3.56635,-35.66351l22.82465,8.55924l-6.41944,30.67062l0,62.05452z"/>
  <path id="svg_12" fill="#e6e6e6" d="m87.74408,186.81629l-27.81754,-12.83886l1.42654,-10.10582a41.48828,41.48828 0 0 1 26.4891,-38.68205l8.46114,-3.28085l-8.55924,64.90758z"/>
  <path id="svg_13" fill="#e6e6e6" d="m816,459.73257l-476,0a7.5082,7.5082 0 0 1 -7.5,-7.5l0,-207a7.5082,7.5082 0 0 1 7.5,-7.5l476,0a7.5082,7.5082 0 0 1 7.5,7.5l0,207a7.5082,7.5082 0 0 1 -7.5,7.5zm-476,-219a4.50492,4.50492 0 0 0 -4.5,4.5l0,207a4.50491,4.50491 0 0 0 4.5,4.5l476,0a4.50491,4.50491 0 0 0 4.5,-4.5l0,-207a4.50492,4.50492 0 0 0 -4.5,-4.5l-476,0z"/>
  <path id="svg_14" fill="#e6e6e6" d="m359.5,263.23257a4.5,4.5 0 0 0 0,9l63,0a4.5,4.5 0 0 0 0,-9l-63,0z"/>
  <path id="svg_15" fill="#e6e6e6" d="m790.79035,294.52772l0,83.44957l-424.83077,0l0,-43.93766c2.94182,-1.88912 5.90143,-3.76937 8.88768,-5.58753c12.75379,-7.80481 26.40529,-15.10408 41.28325,-17.80921a62.31953,62.31953 0 0 1 21.31262,-0.26606c7.46567,1.23282 14.61134,3.80489 21.68594,6.38578c6.9768,2.55431 13.9714,5.18841 21.2682,6.66959a62.2716,62.2716 0 0 0 21.5704,0.4257c13.66035,-2.04876 26.49415,-7.53875 39.27457,-12.50543c12.86049,-4.99332 26.112,-9.7117 40.03011,-10.33255c13.74031,-0.62085 27.31181,2.62528 40.35,6.65184c26.58306,8.20394 53.726,20.37239 81.87329,12.02652c28.58273,-8.46112 54.87248,-32.8867 86.54811,-25.64059a1.19244,1.19244 0 0 1 0.7466,0.47003z"/>
  <path id="svg_16" fill="#f45555" d="m790.79035,295.98229a1.28259,1.28259 0 0 1 -1.45455,0.63855a47.36842,47.36842 0 0 0 -11.5121,-1.18843c-31.15722,0.54988 -55.11271,25.63172 -85.57811,29.38339c-27.46769,3.37913 -53.32114,-9.97776 -79.148,-16.95775c-13.419,-3.62749 -27.25483,-5.55207 -41.06406,-3.08649c-13.70274,2.439 -26.563,8.0443 -39.4764,13.01992c-12.43452,4.78929 -25.35683,9.2416 -38.82014,9.46333c-14.80256,0.24831 -28.13287,-5.85365 -41.86225,-10.50106c-7.13963,-2.42125 -14.46553,-4.337 -22.03086,-4.52323a66.64492,66.64492 0 0 0 -21.71164,3.36138c-14.58971,4.63858 -27.7337,12.90455 -40.53188,21.11737a1.13679,1.13679 0 0 1 -0.75385,0.204a1.37378,1.37378 0 0 1 -0.58534,-2.50109l0.58534,-0.37255c2.93567,-1.88912 5.8891,-3.76937 8.86911,-5.58753c12.72717,-7.80481 26.35017,-15.10408 41.19707,-17.80921a62.06159,62.06159 0 0 1 21.26813,-0.26606c7.45008,1.23282 14.58083,3.80489 21.64067,6.38578c6.96223,2.55431 13.94222,5.18841 21.22379,6.66959a62.014,62.014 0 0 0 21.52537,0.4257c13.63183,-2.04876 26.43884,-7.53875 39.19258,-12.50543c12.83364,-4.99332 26.05747,-9.7117 39.94654,-10.33255c13.71162,-0.62085 27.25479,2.62528 40.26577,6.65184c26.52756,8.20394 53.61383,20.37239 81.70236,12.02652c28.52306,-8.46112 54.75793,-32.8867 86.36743,-25.64059a1.1897,1.1897 0 0 1 0.745,0.47a1.36658,1.36658 0 0 1 0.00002,1.4546z"/>
  <circle id="svg_17" fill="#191919" r="6.20838" cy="311.45889" cx="424.49576"/>
  <circle stroke-opacity="0" stroke="#000000" id="svg_18" fill="#000000" r="6.20838" cy="303.47668" cx="581.47916"/>
  <circle id="svg_19" fill="#191919" r="6.20838" cy="295.49447" cx="773.05211"/>
  <path id="svg_20" fill="#e6e6e6" d="m421,413.23257a4.5,4.5 0 0 0 0,9l63,0a4.5,4.5 0 0 0 0,-9l-63,0z"/>
  <circle stroke="null" id="svg_21" fill="#f45555" r="17" cy="417.23257" cx="380.5"/>
  <path id="svg_22" fill="#e6e6e6" d="m573,413.23257a4.5,4.5 0 0 0 0,9l63,0a4.5,4.5 0 0 0 0,-9l-63,0z"/>
  <circle id="svg_23" fill="#f45555" r="17" cy="417.23257" cx="532.5"/>
  <path id="svg_24" fill="#e6e6e6" d="m725,413.23257a4.5,4.5 0 0 0 0,9l63,0a4.5,4.5 0 0 0 0,-9l-63,0z"/>
  <circle id="svg_25" fill="#f45555" r="17" cy="417.23257" cx="685.5"/>
  <path fill="#e6e6e6" d="m783.419,181.84199l-234.838,0c-4.578,0 -8.288,-2.643 -8.293,-5.9l0,-51.042c0.005,-3.257 3.715,-5.9 8.293,-5.9l234.838,0c4.578,0 8.288,2.643 8.293,5.9l0,51.041c-0.004,3.25701 -3.715,5.897 -8.293,5.901zm-234.838,-60.484c-2.747,0 -4.973,1.586 -4.976,3.54l0,51.041c0,1.954 2.229,3.538 4.976,3.54l234.838,0c2.747,0 4.973,-1.586 4.976,-3.54l0,-51.039c0,-1.954 -2.229,-3.538 -4.976,-3.54l-234.838,-0.002z" data-name="Path 78" id="e1cfef3e-7788-4f0f-b252-d185c9336b04"/>
  <path id="svg_26" fill="#f55454" d="m601.67905,148.00716a5.00589,5.00589 0 0 0 -5,5l0,35a5.00589,5.00589 0 0 0 5,5l179,0a5.00589,5.00589 0 0 0 5,-5l0,-35a5.00588,5.00588 0 0 0 -5,-5l-179,0z"/>
  <circle id="svg_27" fill="#fff" r="11" cy="171.00715" cx="626.67905"/>
  <path id="svg_28" fill="#fff" d="m676.81094,166.23257a4.5,4.5 0 0 0 0,9l63,0a4.5,4.5 0 0 0 0,-9l-63,0z"/>
  <path fill="#e6e6e6" d="m607.419,62.84199l-234.838,0c-4.578,0 -8.288,-2.643 -8.293,-5.9l0,-51.042c0.005,-3.257 3.715,-5.9 8.293,-5.9l234.838,0c4.578,0 8.288,2.643 8.293,5.9l0,51.041c-0.004,3.25701 -3.715,5.897 -8.293,5.901zm-234.838,-60.484c-2.747,0 -4.973,1.586 -4.976,3.54l0,51.041c0,1.954 2.229,3.538 4.976,3.54l234.838,0c2.747,0 4.973,-1.586 4.976,-3.54l0,-51.039c0,-1.954 -2.229,-3.538 -4.976,-3.54l-234.838,-0.002z" data-name="Path 78" id="b00e8b21-64f0-4b6c-8490-a93637cb24e1"/>
  <path id="svg_29" fill="#f55454" d="m425.67905,29.00716a5.00589,5.00589 0 0 0 -5,5l0,35a5.00589,5.00589 0 0 0 5,5l179,0a5.00589,5.00589 0 0 0 5,-5l0,-35a5.00588,5.00588 0 0 0 -5,-5l-179,0z"/>
  <circle id="svg_30" fill="#fff" r="11" cy="52.00715" cx="450.67905"/>
  <path id="svg_31" fill="#fff" d="m500.81094,47.23257a4.5,4.5 0 0 0 0,9l63,0a4.5,4.5 0 0 0 0,-9l-63,0z"/>
 </g>
</svg>